<?xml version="1.0" encoding="ISO-8859-1" standalone="yes"?>
<!DOCTYPE svg PUBLIC "-//W3C//DTD SVG 20010904//EN"
  "http://www.w3.org/TR/2001/REC-SVG-20010904/DTD/svg10.dtd">
<svg width="16.5947cm" height="13.9101cm" viewBox="940 639.1719 2352 1971.5078" version="1.0"
    xmlns="http://www.w3.org/2000/svg"
    xmlns:xlink="http://www.w3.org/1999/xlink">
<desc>
  Exported by the ArtWorks SVGExport module.
  Source document: SCSI::Develop.$.Develop.Web.Input.cm.Pages.crypto.enigma.artwork.wheel_exploded
</desc>
<g transform="matrix(1 0 0 -1 0 3249.8516)" stroke-miterlimit="16" fill-rule="evenodd" clip-rule="evenodd" stroke-linejoin="bevel" stroke-linecap="butt">
<rect x="940" y="1548" width="2352" height="224" fill="#ffffff"/>
<defs>
<linearGradient id="_Fill0" gradientUnits="userSpaceOnUse" gradientTransform="rotate(25.2509 2039.8047 1730.3438)" x1="2182" y1="2414" x2="1606.5313" y2="1504.8281" spreadMethod="pad">
<stop offset="0" stop-color="#ffffff"/>
<stop offset="1" stop-color="#666666"/>
</linearGradient>
</defs>
<ellipse transform="rotate(-25.2509 2039.8047 1730.3438)" cx="2039.8047" cy="1730.3438" rx="222.7266" ry="595.2734" fill="url(#_Fill0)"/>
<defs>
<linearGradient id="_Fill1" gradientUnits="userSpaceOnUse" gradientTransform="rotate(25.2514 2057.0469 1722.2031)" x1="2090" y1="2638" x2="2794" y2="-562" spreadMethod="pad">
<stop offset="0" stop-color="#ffffff"/>
<stop offset="1" stop-color="#000000"/>
</linearGradient>
</defs>
<ellipse transform="rotate(-25.2514 2057.0469 1722.2031)" cx="2057.0469" cy="1722.2031" rx="222.7344" ry="595.2734" fill="url(#_Fill1)"/>
<ellipse transform="rotate(-25.2512 2272.8359 2179.5547)" cx="2272.8359" cy="2179.5547" rx="15.4609" ry="41.3516" stroke="#000000" stroke-width="1.25" fill="#ffcc4f"/>
<path d="M2206.8984 2182.6953 C2214.4531 2203.6328 2228.6172 2221.8047 2238.4375 2223.2734 2248.3359 2224.7656 2250.1797 2209.0078 2242.6094 2188.1016 2235.0313 2167.1641 2220.9063 2148.9766 2211.0391 2147.4922 2201.1563 2146.0156 2199.3359 2161.7813 2206.8984 2182.6953 Z" stroke="#000000" stroke-width="1.25" fill="#ffcc4f"/>
<path d="M2146.0547 2151.7734 C2150.9688 2171.7266 2164.25 2193.1641 2175.6484 2199.6797 2187.0547 2206.2266 2192.2813 2195.3594 2187.3672 2175.4141 2182.3906 2155.4609 2169.1406 2134.0469 2157.75 2127.5078 2146.3203 2120.9609 2141.0781 2131.8516 2146.0547 2151.7734 Z" stroke="#000000" stroke-width="1.25" fill="#ffcc4f"/>
<path d="M2079.7734 2094.9375 C2081.8047 2112.6875 2093.3516 2136.1406 2105.6563 2147.3125 2117.9219 2158.5 2126.2188 2153.1641 2124.2266 2135.3984 2122.1875 2117.6797 2110.6094 2094.2344 2098.3125 2083.0469 2086.0469 2071.8438 2077.7656 2077.2188 2079.7734 2094.9375 Z" stroke="#000000" stroke-width="1.25" fill="#ffcc4f"/>
<path d="M2094.2266 2098.9453 C2090.7734 2101.5469 2091.7422 2111 2096.4219 2120.1016 2101.1016 2129.2109 2107.7031 2134.4922 2111.1953 2131.8906 2114.6641 2129.3203 2113.6875 2119.8359 2109.0156 2110.7422 2104.3125 2101.6406 2097.7031 2096.3438 2094.2266 2098.9453 Z" stroke="#000000" stroke-width="1.25" fill="#000000"/>
<path d="M2008.1719 2010.4922 C2006.9766 2024.75 2016.0391 2048.7813 2028.4141 2064.1328 2040.7813 2079.4922 2051.7891 2080.3672 2053 2066.1094 2054.1953 2051.8047 2045.1172 2027.7734 2032.7422 2012.4219 2020.3828 1997.0547 2009.3594 1996.1875 2008.1719 2010.4922 Z" stroke="#000000" stroke-width="1.25" fill="#ffcc4f"/>
<path d="M1943.5781 1912.7969 C1939.375 1922.9219 1945.5078 1945.9922 1957.2188 1964.3984 1968.9375 1982.7734 1981.8125 1989.4531 1985.9766 1979.3281 1990.1484 1969.2422 1984.0469 1946.125 1972.3203 1927.75 1960.6016 1909.3828 1947.7109 1902.7031 1943.5781 1912.7969 Z" stroke="#000000" stroke-width="1.25" fill="#ffcc4f"/>
<path d="M1885.75 1803.8281 C1878.875 1809.2109 1881.6875 1829.9844 1891.9844 1850.25 1902.3828 1870.5391 1916.3281 1882.625 1923.2344 1877.2813 1930.1406 1871.9297 1927.3359 1851.1641 1916.9766 1830.9063 1906.6172 1810.5938 1892.6563 1798.5078 1885.75 1803.8281 Z" stroke="#000000" stroke-width="1.25" fill="#ffcc4f"/>
<path d="M1838.2734 1689.8984 C1829.0625 1690.1484 1828.3672 1707.3594 1836.7266 1728.3203 1845.1094 1749.2813 1859.3359 1766.0313 1868.5391 1765.8516 1877.75 1765.5781 1878.4375 1748.3281 1870.0781 1727.3828 1861.7031 1706.4219 1847.4609 1689.6172 1838.2734 1689.8984 Z" stroke="#000000" stroke-width="1.25" fill="#ffcc4f"/>
<path d="M1802.2656 1571.5469 C1791.2344 1566.4063 1786.9141 1578.6953 1792.625 1599.0703 1798.375 1619.3984 1811.9531 1640.0547 1823.0078 1645.2109 1834.0391 1650.3359 1838.3594 1638.0078 1832.6016 1617.6719 1826.9219 1597.3438 1813.3203 1576.7031 1802.2656 1571.5469 Z" stroke="#000000" stroke-width="1.25" fill="#ffcc4f"/>
<path d="M1784.0625 1468.9375 C1771.9453 1458.9844 1764.4688 1465.8906 1767.3047 1484.3594 1770.1719 1502.875 1782.3125 1525.8984 1794.4219 1535.8047 1806.5 1545.7422 1814.0156 1538.7969 1811.1484 1520.3594 1808.2813 1501.875 1796.1328 1478.8438 1784.0625 1468.9375 Z" stroke="#000000" stroke-width="1.25" fill="#ffcc4f"/>
<path d="M1782.1172 1381.4766 C1769.6797 1367.3438 1759.4766 1368.4688 1759.2969 1383.9766 1759.1328 1399.4922 1769.0938 1423.5078 1781.5078 1437.625 1793.9297 1451.7422 1804.1719 1450.6406 1804.3281 1435.1172 1804.4844 1419.5781 1794.5391 1395.6094 1782.1172 1381.4766 Z" stroke="#000000" stroke-width="1.25" fill="#ffcc4f"/>
<path d="M1796.7578 1314.5313 C1784.7422 1297.0469 1772.4141 1292.2734 1769.2266 1303.8906 1766.0391 1315.4688 1773.1953 1339.0547 1785.2344 1356.5 1797.2266 1373.9766 1809.5703 1378.75 1812.7813 1367.1406 1815.9688 1355.5078 1808.7734 1331.9531 1796.7578 1314.5313 Z" stroke="#000000" stroke-width="1.25" fill="#ffcc4f"/>
<path d="M1826.9453 1271.8984 C1816.0781 1252.1406 1802.3594 1241.7734 1796.3516 1248.8047 1790.3281 1255.7734 1794.3047 1277.5 1805.1797 1297.2969 1816.0547 1317.0234 1829.7813 1327.3984 1835.7891 1320.3828 1841.7656 1313.3203 1837.8203 1291.6641 1826.9453 1271.8984 Z" stroke="#000000" stroke-width="1.25" fill="#ffcc4f"/>
<path d="M1921.4844 1265.8203 C1914.5781 1245.0391 1900.5703 1225.8984 1890.2578 1223.1563 1879.9609 1220.3594 1877.1875 1234.9531 1884.1328 1255.7578 1891.0781 1276.5313 1905.1016 1295.6641 1915.4297 1298.3984 1925.7188 1301.2188 1928.4141 1286.5781 1921.4844 1265.8203 Z" stroke="#000000" stroke-width="1.25" fill="#ffcc4f"/>
<path d="M1982.6172 1302.3359 C1978.3359 1282.7969 1965.3594 1260.8047 1953.7344 1253.1719 1942.0625 1245.5156 1936.0469 1255.1484 1940.3516 1274.6797 1944.6406 1294.2031 1957.5781 1316.2578 1969.2578 1323.8984 1980.8828 1331.4844 1986.8906 1321.8672 1982.6172 1302.3359 Z" stroke="#000000" stroke-width="1.25" fill="#ffcc4f"/>
<path d="M2052.0313 1367.3672 C2050.8125 1350.375 2039.7969 1326.6172 2027.4453 1314.3281 2015.0781 1302.0078 2006.0391 1305.8125 2007.2109 1322.7813 2008.4375 1339.7578 2019.4453 1363.4844 2031.8438 1375.8047 2044.1953 1388.1094 2053.2422 1384.3203 2052.0313 1367.3672 Z" stroke="#000000" stroke-width="1.25" fill="#ffcc4f"/>
<path d="M2118.7969 1451.0703 C2120.5859 1437.5078 2112.0938 1413.5859 2099.7656 1397.5234 2087.5078 1381.5313 2076.0469 1379.4531 2074.2734 1393.0078 2072.4375 1406.4844 2080.9844 1430.4688 2093.2422 1446.4609 2105.5625 1462.5078 2116.9766 1464.5859 2118.7969 1451.0703 Z" stroke="#000000" stroke-width="1.25" fill="#ffcc4f"/>
<path d="M2182.3516 1551.4766 C2187.0938 1542.2813 2181.6094 1519.5625 2170.1484 1500.7031 2158.6563 1481.8516 2145.4531 1474.0547 2140.7422 1483.2578 2135.9844 1492.4297 2141.4531 1515.2109 2152.9531 1534.0234 2164.4375 1552.8516 2177.6016 1560.6641 2182.3516 1551.4766 Z" stroke="#000000" stroke-width="1.25" fill="#ffcc4f"/>
<path d="M2230.4141 1644.7109 C2237.4453 1639.6016 2234.7813 1618.9609 2224.5078 1598.6016 2214.2266 1578.2891 2200.2109 1565.9375 2193.2188 1571.0703 2186.2188 1576.1641 2188.8438 1596.8281 2199.1328 1617.1563 2209.4219 1637.4922 2223.4219 1649.8203 2230.4141 1644.7109 Z" stroke="#000000" stroke-width="1.25" fill="#ffcc4f"/>
<path d="M2274.3906 1750.4453 C2283.5156 1750.0547 2284.0938 1732.7422 2275.6875 1711.8047 2267.2344 1690.7813 2253.0078 1674.1484 2243.8438 1674.4844 2234.6953 1674.9219 2234.1563 1692.2969 2242.5625 1713.2422 2250.9844 1734.1797 2265.2266 1750.875 2274.3906 1750.4453 Z" stroke="#000000" stroke-width="1.25" fill="#ffcc4f"/>
<path d="M2308.3281 1859.2344 C2319.1953 1863.7969 2323.1406 1850.9453 2317.0781 1830.4531 2311.0625 1809.9688 2297.3438 1789.6797 2286.4688 1785.1484 2275.5859 1780.5625 2271.7188 1793.5078 2277.7266 1813.9609 2283.7422 1834.4297 2297.4609 1854.7109 2308.3281 1859.2344 Z" stroke="#000000" stroke-width="1.25" fill="#ffcc4f"/>
<path d="M2327.7422 1957.7891 C2339.7109 1966.9531 2346.6797 1959.0781 2343.3281 1940.2344 2339.9453 1921.3281 2327.5 1898.625 2315.5313 1889.4766 2303.5547 1880.3125 2296.6016 1888.2422 2300.0078 1907.1641 2303.3594 1926.0156 2315.7656 1948.7031 2327.7422 1957.7891 Z" stroke="#000000" stroke-width="1.25" fill="#ffcc4f"/>
<path d="M2332.7578 2043.1484 C2345.1797 2056.3672 2354.7813 2053.8125 2354.2422 2037.5234 2353.6797 2021.2188 2343.1719 1997.3281 2330.7422 1984.1094 2318.3125 1970.9375 2308.6719 1973.4141 2309.2656 1989.75 2309.8281 2006.0313 2320.3281 2029.9219 2332.7578 2043.1484 Z" stroke="#000000" stroke-width="1.25" fill="#ffcc4f"/>
<path d="M2321.9141 2116.0078 C2334.125 2132.8438 2346.0391 2136.2266 2348.5234 2123.6406 2351.0156 2111.0938 2343.1719 2087.3047 2330.9766 2070.4922 2318.8203 2053.7344 2306.8984 2050.3203 2304.3828 2062.8906 2301.9141 2075.4766 2309.7813 2099.2734 2321.9141 2116.0078 Z" stroke="#000000" stroke-width="1.25" fill="#ffcc4f"/>
<path d="M2297.1953 2162.4922 C2308.4688 2181.7109 2321.8672 2190.4922 2327.0859 2182.1172 2332.3125 2173.7109 2327.3828 2151.3359 2316.1328 2132.1016 2304.8516 2112.9063 2291.4531 2104.125 2286.2266 2112.5 2281 2120.9375 2285.8906 2143.2813 2297.1953 2162.4922 Z" stroke="#000000" stroke-width="1.25" fill="#ffcc4f"/>
<path d="M1869.0781 1255.1563 C1859.9219 1234.3047 1845.6875 1219.1094 1837.3047 1221.2813 1828.8516 1223.3906 1829.4375 1242.0156 1838.6094 1262.8906 1847.7344 1283.7266 1861.9922 1298.9531 1870.4219 1296.7813 1878.8281 1294.7188 1878.2344 1276.0391 1869.0781 1255.1563 Z" stroke="#000000" stroke-width="1.25" fill="#ffcc4f"/>
<defs>
<linearGradient id="_Fill2" gradientUnits="userSpaceOnUse" x1="2037.8047" y1="1677.2813" x2="2081.4688" y2="1764.5" spreadMethod="pad">
<stop offset="0" stop-color="#cccccc"/>
<stop offset="1" stop-color="#4c4c4c"/>
</linearGradient>
</defs>
<path d="M2035.9219 1730.8984 C2050.5391 1761.8828 2071.8281 1782.5781 2083.4375 1777.1094 2095.0391 1771.6328 2092.5625 1742.0703 2077.9453 1711.0703 2063.3125 1680.0469 2042.0781 1659.3438 2030.4688 1664.8125 2018.8594 1670.2891 2021.2891 1699.875 2035.9219 1730.8984 Z" stroke="#000000" stroke-width="1.25" fill="url(#_Fill2)"/>
<path d="M2022.9141 1680.3594 2023.0234 1687.5078 C2024.0156 1699.4688 2028.2734 1714.625 2035.5859 1730.125 2042.8984 1745.625 2051.8828 1758.5391 2060.4688 1766.9219 L2065.9141 1771.5391 2065.8203 1764.3984 C2064.8203 1752.4297 2060.5391 1737.2969 2053.2422 1721.8047 2045.9219 1706.2969 2036.9531 1693.3594 2028.3672 1684.9922 L2022.9141 1680.3594 Z" stroke="#000000" stroke-width="1.25" fill="#ffffff"/>
<path d="M1896.0391 1824.0859 C1892.5859 1826.6719 1893.5547 1836.1484 1898.2422 1845.2344 1902.9219 1854.3359 1909.5313 1859.625 1913.0156 1857.0234 1916.4844 1854.4609 1915.5156 1844.9766 1910.8281 1835.8984 1906.1328 1826.7813 1899.5313 1821.4844 1896.0391 1824.0859 Z" stroke="#000000" stroke-width="1.25" fill="#000000"/>
<path d="M1957.2188 1929.5781 C1953.7656 1932.1641 1954.7422 1941.6406 1959.4141 1950.7266 1964.1016 1959.8438 1970.7031 1965.1172 1974.1875 1962.5156 1977.6641 1959.9531 1976.6797 1950.4609 1972.0078 1941.3828 1967.3047 1932.2734 1960.7109 1926.9844 1957.2188 1929.5781 Z" stroke="#000000" stroke-width="1.25" fill="#000000"/>
<path d="M2022.0156 2020.9297 C2018.5625 2023.5313 2019.5391 2032.9922 2024.2031 2042.0938 2028.8984 2051.1953 2035.4922 2056.4688 2038.9922 2053.8828 2042.4609 2051.3047 2041.4766 2041.8203 2036.7969 2032.7266 2032.0938 2023.625 2025.5 2018.3516 2022.0156 2020.9297 Z" stroke="#000000" stroke-width="1.25" fill="#000000"/>
<path d="M1846.5156 1711.8438 C1843.0703 1714.4297 1844.0313 1723.8906 1848.7109 1732.9922 1853.3984 1742.0938 1860 1747.375 1863.4922 1744.7969 1866.9609 1742.2188 1865.9766 1732.7266 1861.2969 1723.6406 1856.6016 1714.5234 1850 1709.25 1846.5156 1711.8438 Z" stroke="#000000" stroke-width="1.25" fill="#000000"/>
<path d="M2217.5625 2173.8906 C2214.1094 2176.4844 2215.0781 2185.9453 2219.7578 2195.0391 2224.4297 2204.1484 2231.0313 2209.4297 2234.5313 2206.8359 2237.9922 2204.2734 2237.0234 2194.7813 2232.3359 2185.6953 2227.6484 2176.5781 2221.0391 2171.2891 2217.5625 2173.8906 Z" stroke="#000000" stroke-width="1.25" fill="#000000"/>
<path d="M2264.4531 2165.3594 C2260.9844 2167.9453 2261.9688 2177.4063 2266.6328 2186.5 2271.3203 2195.6094 2277.9141 2200.8984 2281.4141 2198.2969 2284.8828 2195.7344 2283.9141 2186.2422 2279.2266 2177.1563 2274.5313 2168.0391 2267.9297 2162.7578 2264.4531 2165.3594 Z" stroke="#000000" stroke-width="1.25" fill="#000000"/>
<path d="M2299.1016 2130.9063 C2295.6484 2133.5078 2296.625 2142.9531 2301.2969 2152.0547 2305.9922 2161.1719 2312.5859 2166.4453 2316.0703 2163.8438 2319.5547 2161.2813 2318.5781 2151.7969 2313.8906 2142.7031 2309.2031 2133.6016 2302.5938 2128.3125 2299.1016 2130.9063 Z" stroke="#000000" stroke-width="1.25" fill="#000000"/>
<path d="M2318.1875 2077.7813 C2314.7188 2080.3828 2315.7031 2089.8438 2320.3672 2098.9375 2325.0547 2108.0469 2331.6484 2113.3281 2335.1563 2110.7188 2338.6172 2108.1563 2337.6484 2098.6719 2332.9609 2089.5938 2328.2656 2080.4766 2321.6641 2075.1875 2318.1875 2077.7813 Z" stroke="#000000" stroke-width="1.25" fill="#000000"/>
<path d="M2322.3125 1997.7734 C2318.8594 2000.375 2319.8281 2009.8203 2324.5 2018.9141 2329.1797 2028.0234 2335.7891 2033.3125 2339.2813 2030.7109 2342.7422 2028.1484 2341.7734 2018.6641 2337.0938 2009.5703 2332.3906 2000.4688 2325.7891 1995.1719 2322.3125 1997.7734 Z" stroke="#000000" stroke-width="1.25" fill="#000000"/>
<path d="M2312.4766 1907.375 C2309.0234 1909.9688 2309.9922 1919.4297 2314.6719 1928.5234 2319.3438 1937.6328 2325.9531 1942.9063 2329.4453 1940.3047 2332.9063 1937.7422 2331.9375 1928.2656 2327.25 1919.1797 2322.5625 1910.0625 2315.9531 1904.7734 2312.4766 1907.375 Z" stroke="#000000" stroke-width="1.25" fill="#000000"/>
<path d="M2290.0625 1807.0703 C2286.6094 1809.6563 2287.5781 1819.1172 2292.2578 1828.2109 2296.9375 1837.3203 2303.5391 1842.6016 2307.0313 1840 2310.5 1837.4453 2309.5234 1827.9531 2304.8359 1818.8672 2300.1484 1809.75 2293.5391 1804.4688 2290.0625 1807.0703 Z" stroke="#000000" stroke-width="1.25" fill="#000000"/>
<path d="M2252.2813 1698.1719 C2248.8203 1700.7734 2249.7969 1710.2188 2254.4688 1719.3203 2259.1484 1728.4375 2265.7578 1733.7109 2269.2422 1731.1094 2272.7109 1728.5469 2271.7422 1719.0625 2267.0625 1709.9688 2262.3594 1700.8672 2255.7578 1695.5781 2252.2813 1698.1719 Z" stroke="#000000" stroke-width="1.25" fill="#000000"/>
<path d="M2203.4375 1592.2344 C2199.9844 1594.8281 2200.9531 1604.2891 2205.6328 1613.375 2210.3047 1622.4922 2216.9141 1627.7656 2220.4063 1625.1641 2223.8672 1622.6016 2222.8984 1613.125 2218.2188 1604.0313 2213.5234 1594.9219 2206.9141 1589.6328 2203.4375 1592.2344 Z" stroke="#000000" stroke-width="1.25" fill="#000000"/>
<path d="M2154.2813 1500.0156 C2150.8281 1502.6094 2151.7969 1512.0703 2156.4766 1521.1641 2161.1563 1530.2734 2167.7578 1535.5469 2171.25 1532.9453 2174.7188 1530.3828 2173.7422 1520.8984 2169.0547 1511.8203 2164.3672 1502.7031 2157.7578 1497.4141 2154.2813 1500.0156 Z" stroke="#000000" stroke-width="1.25" fill="#000000"/>
<path d="M2087.3672 1403.7266 C2083.9141 1406.3125 2084.8828 1415.7734 2089.5625 1424.8672 2094.2422 1433.9766 2100.8438 1439.2578 2104.3359 1436.6563 2107.8047 1434.0859 2106.8281 1424.6172 2102.1563 1415.5234 2097.4531 1406.4141 2090.8438 1401.125 2087.3672 1403.7266 Z" stroke="#000000" stroke-width="1.25" fill="#000000"/>
<path d="M2021.3516 1328.5156 C2017.8906 1331.1172 2018.8672 1340.5625 2023.5391 1349.6563 2028.2266 1358.7656 2034.8203 1364.0547 2038.3203 1361.4531 2041.7891 1358.8906 2040.8125 1349.4063 2036.125 1340.3125 2031.4375 1331.2109 2024.8281 1325.9141 2021.3516 1328.5156 Z" stroke="#000000" stroke-width="1.25" fill="#000000"/>
<path d="M1952.6172 1271.5391 C1949.1641 1274.1406 1950.1328 1283.5938 1954.8125 1292.6953 1959.5 1301.8047 1966.0938 1307.0859 1969.5859 1304.4844 1973.0625 1301.9141 1972.0781 1292.4297 1967.3984 1283.3438 1962.7031 1274.2344 1956.1094 1268.9375 1952.6172 1271.5391 Z" stroke="#000000" stroke-width="1.25" fill="#000000"/>
<path d="M1894.6953 1242.2891 C1891.2422 1244.8906 1892.2266 1254.3594 1896.8906 1263.4453 1901.5781 1272.5625 1908.1719 1277.8359 1911.6641 1275.2344 1915.1406 1272.6641 1914.1719 1263.1797 1909.4844 1254.1016 1904.7969 1244.9922 1898.1875 1239.7031 1894.6953 1242.2891 Z" stroke="#000000" stroke-width="1.25" fill="#000000"/>
<path d="M1845.7344 1241.6328 C1842.2813 1244.2344 1843.25 1253.6953 1847.9141 1262.7891 1852.6016 1271.8984 1859.2031 1277.1797 1862.7031 1274.5703 1866.1641 1272.0078 1865.1953 1262.5234 1860.5078 1253.4297 1855.8203 1244.3281 1849.2109 1239.0391 1845.7344 1241.6328 Z" stroke="#000000" stroke-width="1.25" fill="#000000"/>
<path d="M1806.7031 1266.8281 C1803.25 1269.4297 1804.2188 1278.8906 1808.8984 1287.9844 1813.5703 1297.0938 1820.1797 1302.3672 1823.6719 1299.7656 1827.1328 1297.2031 1826.1641 1287.7188 1821.4844 1278.6406 1816.7891 1269.5234 1810.1797 1264.2344 1806.7031 1266.8281 Z" stroke="#000000" stroke-width="1.25" fill="#000000"/>
<path d="M1782.1875 1317.9844 C1778.7266 1320.5859 1779.7109 1330.0469 1784.375 1339.1406 1789.0625 1348.25 1795.6563 1353.5313 1799.1563 1350.9219 1802.625 1348.3594 1801.6484 1338.875 1796.9609 1329.7813 1792.2734 1320.6797 1785.6641 1315.3906 1782.1875 1317.9844 Z" stroke="#000000" stroke-width="1.25" fill="#000000"/>
<path d="M1773.1563 1392.3906 C1769.7031 1394.9922 1770.6797 1404.4531 1775.3438 1413.5469 1780.0313 1422.6563 1786.625 1427.9375 1790.125 1425.3359 1793.5938 1422.7656 1792.625 1413.2813 1787.9297 1404.1953 1783.2422 1395.0938 1776.6406 1389.8047 1773.1563 1392.3906 Z" stroke="#000000" stroke-width="1.25" fill="#000000"/>
<path d="M1779.2891 1484.5391 C1775.8203 1487.1406 1776.8047 1496.6016 1781.4688 1505.6875 1786.1563 1514.8047 1792.7578 1520.0781 1796.2578 1517.4766 1799.7188 1514.9141 1798.75 1505.4297 1794.0625 1496.3516 1789.375 1487.2344 1782.7656 1481.9453 1779.2891 1484.5391 Z" stroke="#000000" stroke-width="1.25" fill="#000000"/>
<path d="M1804.2656 1592.6875 C1800.8125 1595.2813 1801.7813 1604.7422 1806.4453 1613.8359 1811.1406 1622.9453 1817.7344 1628.2188 1821.2344 1625.6172 1824.7031 1623.0547 1823.7266 1613.5703 1819.0391 1604.4922 1814.3516 1595.375 1807.7422 1590.0859 1804.2656 1592.6875 Z" stroke="#000000" stroke-width="1.25" fill="#000000"/>
<path d="M2160.4531 2148.7734 C2157 2151.3594 2157.9766 2160.8203 2162.6484 2169.9141 2167.3281 2179.0234 2173.9375 2184.3125 2177.4219 2181.7109 2180.9063 2179.1484 2179.9219 2169.6641 2175.2422 2160.5703 2170.5391 2151.4609 2163.9375 2146.1719 2160.4531 2148.7734 Z" stroke="#000000" stroke-width="1.25" fill="#000000"/>
<path d="M2335.5234 2018.5078 C2338.1484 2008.6016 2345.9063 1998.7109 2343.3906 1988.7813 2336.8672 1963.1172 2304.3672 1952.4531 2288.8047 1931.0469 2276.3672 1914.0078 2262 1896.3203 2258.5 1875.5391 2255.4922 1857.7109 2262.1328 1839.3047 2267.4844 1822.0313 2279.2578 1783.9609 2297.25 1747.8125 2317.5938 1713.5469 2334.5547 1684.9531 2357.2188 1660.1953 2377.0156 1633.5" stroke="#000000" stroke-width="15.3438" fill="none"/>
<defs>
<linearGradient id="_Fill3" gradientUnits="userSpaceOnUse" x1="1188.0625" y1="1313.4063" x2="1782.4531" y2="2446.1172" spreadMethod="pad">
<stop offset="0" stop-color="#ffffff"/>
<stop offset="1" stop-color="#808080"/>
</linearGradient>
</defs>
<path d="M1110.7266 1458.6016 1254.1563 1389.5547 C1381.6172 1329.4375 1606.6172 1538.6953 1756.7344 1856.9531 1906.8438 2175.2109 1925.2188 2481.9375 1797.7813 2542.0547 L1653.625 2606.0391 C1781.0625 2545.9297 1759.2891 2244.8047 1609.1719 1926.5547 1459.0625 1608.2891 1238.1875 1398.4844 1110.7266 1458.6016 Z" fill="url(#_Fill3)"/>
<defs>
<linearGradient id="_Fill4" gradientUnits="userSpaceOnUse" x1="1718" y1="2722" x2="1096.3203" y2="1456.9922" spreadMethod="pad">
<stop offset="0" stop-color="#ffffff"/>
<stop offset="1" stop-color="#808080"/>
</linearGradient>
</defs>
<path d="M1277.8984 1378.3594 1130.3438 1447.9531 C1002.8828 1508.0781 1021.25 1814.7891 1171.3672 2133.0469 1321.4766 2451.3125 1546.4766 2660.5781 1673.9141 2600.4609 L1821.4766 2530.8672 C1694.0391 2590.9766 1469.0391 2381.7109 1318.9219 2063.4531 1168.8125 1745.1875 1150.4375 1438.4766 1277.8984 1378.3594 Z" fill="url(#_Fill4)"/>
<g>
<path d="M1115.8828 1477.8594 C1134.9375 1468.5859 1160.9609 1455.9219 1184.0313 1446.25 1188.9453 1441.8828 1193.9453 1437.6406 1198.9844 1433.5234 1201.1563 1431.7734 1203.4766 1430.1094 1208.1719 1428.3438 1212.0625 1426.8828 1213.3359 1427.1172 1212.6094 1428.1484 1212.2188 1428.7031 1211.1094 1429.7266 1209.9219 1430.6719 1186.6797 1449.7031 1163.6953 1472.2578 1143.3281 1496.3359 1140.9531 1499.0859 1138.0625 1502.5469 1131.125 1505.7891 1124.2109 1509.0156 1122.8984 1507.5156 1121.7656 1506.3984 1112.5 1496.125 1105.3906 1487.4766 1103.3047 1478.9375 1103.1719 1478.5391 1103.2422 1477.9688 1103.5156 1477.4766 1104.0547 1476.5234 1105.7344 1475.1719 1108.5156 1473.8281 1111.8984 1472.1953 1112.3047 1472.6406 1112.9766 1473.1328 1113.7734 1474.6797 1114.75 1476.25 1115.8828 1477.8594 1115.8828 1477.8594 1115.8828 1477.8594 1115.8828 1477.8594 Z M1176.5313 1453.0625 C1156.5078 1461.6484 1134.7813 1472.1172 1117.7031 1480.4141 1121.7578 1485.6406 1127.2031 1491.3594 1133.2813 1497.9766 1133.3984 1497.9219 1133.5313 1497.8594 1133.6641 1497.7969 1146.7734 1482.2266 1161.2813 1467.125 1176.5313 1453.0625 1176.5313 1453.0625 1176.5313 1453.0625 1176.5313 1453.0625 Z" fill="#000000"/>
<path d="M1087.7578 1564.0313 C1088.0391 1561.6563 1089.5859 1559.7578 1094.25 1557.5078 1102.2813 1553.625 1111.8594 1549.0078 1121.8984 1544.3125 1151.6484 1530.4297 1161.4844 1535.7188 1159.8906 1546.6406 1158.5078 1556.9922 1148.7344 1567.0391 1130.7969 1576.7656 1130.7969 1576.8281 1130.7969 1576.9063 1130.7969 1576.9688 1141.6953 1574.6094 1148.1406 1576.0078 1147.6797 1585.0859 1147.3594 1593.7578 1138.4844 1608.0156 1111.8047 1620.6094 1104.6094 1624.0156 1097.8359 1627.2734 1092.0156 1630.0938 1087.7266 1632.1641 1086.3828 1631.3672 1086.2344 1628.6797 1085.3281 1605.7109 1085.7969 1584.0781 1087.7578 1564.0313 1087.7578 1564.0313 1087.7578 1564.0313 1087.7578 1564.0313 Z M1095.7188 1621.0156 C1100.9063 1618.5234 1106.6719 1615.75 1112.7031 1612.9063 1127.0547 1606.1328 1135.0703 1596.3828 1135.2344 1590.1641 1135.6094 1582.3516 1125.6797 1581.4531 1112.7422 1587.5703 1106.6953 1590.4219 1100.9141 1593.1797 1095.6875 1595.7109 1095.4922 1603.9531 1095.5156 1612.3906 1095.7188 1621.0156 1095.7188 1621.0156 1095.7188 1621.0156 1095.7188 1621.0156 Z M1095.875 1589.5469 C1102.2344 1586.4766 1109.4063 1583.0469 1116.875 1579.5469 1134.4297 1571.3125 1146.5938 1560.3047 1147.5156 1551.9063 1148.7891 1542.5313 1138.2813 1542.5859 1119.5859 1551.3438 1111.8359 1554.9766 1104.3906 1558.5391 1097.7969 1561.7188 1096.8594 1570.6953 1096.2266 1579.9766 1095.875 1589.5469 1095.875 1589.5469 1095.875 1589.5469 1095.875 1589.5469 Z" fill="#000000"/>
<path d="M1138.9609 1750.3672 C1104.3672 1766.75 1094.2109 1746.1719 1090.0234 1723.5781 1086.3203 1700.4453 1089.7031 1678.6328 1128.0078 1660.6875 1150.75 1650.1563 1163.7188 1654.0156 1163.75 1657.8672 1163.9531 1660.875 1162.5078 1662.7734 1160 1663.7422 1156.2656 1665.2266 1150.4375 1658.5703 1129.3594 1668.1797 1099.8594 1681.9063 1094.8359 1701.8984 1097.6172 1719.8672 1100.5078 1737.4922 1112.8359 1753.5 1137.2578 1742.0469 1156.1484 1733.3047 1159.6484 1721.3516 1163.875 1719.625 1165.9375 1718.7969 1168.3594 1719.625 1168.8125 1722.8125 1169.6719 1727.1563 1158.5234 1741.1875 1138.9609 1750.3672 1138.9609 1750.3672 1138.9609 1750.3672 1138.9609 1750.3672 Z" fill="#000000"/>
<path d="M1114.2109 1828.1875 C1113.3828 1824.8906 1113.6875 1822.8125 1116.7578 1821.2813 1122.3281 1818.4844 1130.0156 1814.6797 1138.4375 1810.625 1165.8516 1797.3438 1187.3516 1807.8125 1193.9844 1837.8516 1199.7031 1860.3438 1199.0938 1889.8203 1166.4609 1905.6875 1158.0313 1909.7734 1150.3125 1913.6484 1144.8672 1916.4453 1141.9766 1917.9219 1140.7188 1916.5156 1139.5547 1913.1563 1130.0781 1884.4297 1121.6094 1856.0078 1114.2109 1828.1875 1114.2109 1828.1875 1114.2109 1828.1875 1114.2109 1828.1875 Z M1144.6875 1906.0938 C1149.6484 1903.5781 1155.9453 1900.4453 1162.7422 1897.1406 1187.8516 1884.9453 1189.7969 1861.9141 1184.8438 1843.5469 1178.9922 1820.9922 1166.4844 1806.8984 1140.0078 1819.6016 1133.2188 1822.8828 1126.9219 1825.9766 1121.8906 1828.4844 1128.5938 1853.9531 1136.2188 1879.8906 1144.6875 1906.0938 1144.6875 1906.0938 1144.6875 1906.0938 1144.6875 1906.0938 Z" fill="#000000"/>
<path d="M1196.6172 2011.4219 C1205.2344 2007.1172 1215.2422 2002.2422 1224.4063 1997.9375 1227.6094 1996.4531 1230.375 1997.6016 1231.3594 2000.0859 1232.3359 2002.5547 1231.1953 2005.5156 1228.0156 2007.0156 1218.9141 2011.2734 1208.9609 2016.1328 1200.3984 2020.4141 1205.1797 2032.2031 1210.125 2044 1215.1953 2055.7422 1224.1094 2051.2578 1234.5234 2046.1719 1243.8828 2041.7734 1247 2040.3047 1249.7813 2041.4688 1250.8438 2043.9141 1251.8906 2046.3984 1250.875 2049.2969 1247.7656 2050.7734 1237.1172 2055.7734 1225.0781 2061.7031 1215.4609 2066.5938 1211.5781 2068.5625 1209.6094 2067.4219 1208.0859 2064 1195.4922 2035.0625 1183.7031 2005.9141 1172.8516 1976.8359 1171.5938 1973.4063 1172.1563 1971.0078 1176.1016 1969.0156 1186.2969 1963.9063 1199.1406 1957.6563 1210.4141 1952.4766 1213.5781 1951.0391 1216.2422 1952.2266 1217.1406 1954.6953 1218.0156 1957.1797 1216.8359 1960.0938 1213.6953 1961.5313 1203.7188 1966.125 1192.5313 1971.5469 1183.0469 1976.2734 1187.4141 1987.9844 1191.9453 1999.7031 1196.6172 2011.4219 1196.6172 2011.4219 1196.6172 2011.4219 1196.6172 2011.4219 Z" fill="#000000"/>
<path d="M1266.1016 2163.7266 C1274.3594 2159.5313 1283.8984 2154.8125 1292.6172 2150.6172 1295.7422 2149.1094 1298.6953 2150.1641 1299.9453 2152.5391 1301.1797 2154.8984 1300.2813 2157.7891 1297.1563 2159.2969 1288.4297 2163.5078 1278.8828 2168.2344 1270.6328 2172.4219 1276.5469 2183.7422 1282.5859 2194.9766 1288.7266 2206.0781 1298.1172 2201.3047 1309.1406 2195.8516 1318.7188 2191.2344 1321.7578 2189.7813 1324.6719 2190.8359 1325.9766 2193.1328 1327.2734 2195.4531 1326.5234 2198.2266 1323.4844 2199.7031 1312.3047 2205.0859 1299.1641 2211.6172 1288.9219 2216.8828 1286.4141 2218.0156 1283.5938 2217.0078 1282.1719 2214.4375 1267 2187.0859 1252.4766 2159.0469 1238.6875 2130.5703 1236.7422 2126.5391 1237.0781 2123.6641 1239.8281 2122.25 1242.6094 2120.8281 1245.3672 2122.1172 1247.3125 2126.1406 1253.4219 2138.7578 1259.6953 2151.3047 1266.1016 2163.7266 1266.1016 2163.7266 1266.1016 2163.7266 1266.1016 2163.7266 Z" fill="#000000"/>
<path d="M1382.6328 2301.2344 C1379.4453 2302.7969 1376.0391 2302.125 1374.625 2300 1373.1875 2297.8906 1374.1797 2295.0469 1377.3594 2293.4766 1383.2031 2290.6328 1388.6172 2288.0078 1393.0313 2285.8984 1381.3281 2269.25 1366.375 2255.2109 1343.5781 2266.4609 1319.3828 2278.4766 1323.875 2298.4609 1336.2266 2317.625 1347.0313 2333.8906 1364.6484 2349.0469 1389.9375 2336.4766 1408.2031 2327.4609 1407.2344 2315.6094 1410.8984 2313.8125 1412.9063 2312.8438 1415.5078 2313.4297 1417.6641 2316.3672 1420.4844 2319.6094 1416.5703 2333.4063 1394.7734 2344.1797 1361.7578 2360.5469 1344.5 2341.8594 1330.625 2320.8047 1317.1719 2298.8281 1304.3281 2275.3906 1337.6797 2258.7734 1361.9297 2246.6719 1379.0859 2251.2266 1400.3594 2284.1484 1402.5703 2287.5859 1404.3516 2290.7578 1399.4844 2293.0781 1394.8828 2295.2734 1389.0078 2298.1172 1382.6328 2301.2344 1382.6328 2301.2344 1382.6328 2301.2344 1382.6328 2301.2344 Z" fill="#000000"/>
<path d="M1429.9219 2436.6328 C1444.9922 2428.8125 1470.0234 2416.7188 1485.9219 2408.9531 1477.2891 2399.6875 1468.75 2390.0938 1460.3047 2380.1797 1457.6797 2377.1328 1457.9297 2374.6875 1460.3828 2373.5 1462.8047 2372.3203 1465.2578 2373.4375 1467.8984 2376.4844 1486.2656 2397.875 1505.1328 2417.8047 1524.3672 2436.0313 1527.0859 2438.6328 1527.4219 2440.5703 1524.8594 2441.8281 1522.2891 2443.0703 1519.1016 2442.5469 1516.4141 2439.9297 1508.1328 2432.0078 1499.9297 2423.7578 1491.7891 2415.1953 1475.8125 2422.9844 1450.6797 2435.1328 1435.4688 2442.9922 1443.1953 2451.7109 1450.9531 2460.125 1458.7734 2468.2188 1461.3516 2470.8828 1461.0625 2473.1094 1458.6016 2474.3984 1456.1797 2475.6641 1453.7734 2474.8516 1451.2188 2472.1797 1433.4453 2453.4063 1415.8516 2432.9609 1398.5703 2411.1172 1396.1406 2408 1395.7578 2405.7656 1397.9766 2404.5938 1400.2031 2403.3828 1403.0703 2404.2656 1405.5313 2407.3828 1413.5859 2417.4453 1421.7188 2427.2109 1429.9219 2436.6328 1429.9219 2436.6328 1429.9219 2436.6328 1429.9219 2436.6328 Z" fill="#000000"/>
<path d="M1594 2532.625 C1596.7734 2534.2734 1595.9375 2536.2031 1591.7969 2538.1406 1587.6563 2540.0859 1583.9063 2540.3125 1581.1953 2538.6563 1562.0938 2527.0234 1543.0625 2513.2266 1524.25 2497.4922 1521.5625 2495.2578 1522.2578 2493.0078 1526.0938 2491.1563 1529.9297 2489.3125 1533.5313 2489.4922 1536.25 2491.7266 1555.3203 2507.3594 1574.6094 2521.1016 1594 2532.625 1594 2532.625 1594 2532.625 1594 2532.625 Z" fill="#000000"/>
<path d="M1720.6875 2562.4609 C1723.5391 2562.8203 1722.7109 2564.0313 1718.2969 2566.0156 1713.8359 2567.9922 1709.7266 2569 1706.9297 2568.6172 1691.1328 2566.4297 1675.2969 2562.5234 1659.4531 2557.0078 1653.7188 2555.0391 1646.0938 2554.6094 1632.6563 2560.7969 1618.7188 2567.2109 1620.0859 2569.9609 1615.5313 2572.0547 1612.7813 2573.3359 1609.7734 2573.8203 1608 2573.0625 1605.5781 2572.0781 1611.75 2565.6172 1627.7109 2558.2422 1646 2549.8125 1662.5234 2547.7109 1672.3828 2551.0859 1688.4766 2556.5156 1704.5938 2560.3672 1720.6875 2562.4609 1720.6875 2562.4609 1720.6875 2562.4609 1720.6875 2562.4609 Z" fill="#000000"/>
</g>
<defs>
<linearGradient id="_Fill5" gradientUnits="userSpaceOnUse" x1="1613.7891" y1="2440.1484" x2="1118.0859" y2="1416.1094" spreadMethod="pad">
<stop offset="0" stop-color="#cccccc"/>
<stop offset="1" stop-color="#4c4c4c"/>
</linearGradient>
</defs>
<path d="M1344.3203 2051.0156 C1484.7969 2348.8438 1684.7813 2550.1484 1804.0391 2493.8906 1923.3359 2437.625 1895.7188 2155.0313 1755.2422 1857.2031 1614.7578 1559.3516 1414.6172 1359.0938 1295.3516 1415.3594 1176.0703 1471.6094 1203.8359 1753.1797 1344.3203 2051.0156 Z M1318.9141 2063.4609 C1469.0234 2381.7109 1694.0234 2590.9766 1821.4609 2530.875 1948.9375 2470.75 1930.5547 2164.0234 1780.4531 1845.7734 1630.3281 1527.5156 1405.3359 1318.25 1277.8906 1378.3594 1150.4297 1438.4766 1168.7969 1745.2031 1318.9141 2063.4609 Z" fill="url(#_Fill5)"/>
<path d="M2225.7656 2182.5781 C2236.1406 2171.7031 2250.1641 2163.4375 2256.8828 2150.0156 2265.1484 2133.4375 2263.875 2113.5391 2265.875 2095.1094 2267.6172 2078.6563 2265 2061.7109 2268.3828 2045.5234 2272.9609 2023.5938 2278.8984 2000.7344 2292.1484 1982.6875 2312.8203 1954.4609 2343.0547 1932.7734 2374.6563 1917.7422 2397.3516 1906.9219 2423.3906 1904.9297 2448.2813 1901.1328 2466.6094 1898.2969 2485.7891 1901.1172 2503.7656 1896.4453 2522.2344 1891.6328 2538.6172 1880.7578 2556.0391 1872.9141" stroke="#000000" stroke-width="15.3438" fill="none"/>
<path d="M2168.2422 2165.8359 C2188.5781 2148.0391 2182.7734 2127.1953 2186.7578 2107.0625 2195.75 2061.7578 2193.3047 2014.9531 2198.6172 1969.1016 2203.1328 1930.4297 2204.8516 1891.0781 2215.4531 1853.6641 2222.6328 1828.3281 2246.6875 1807.4844 2246.8672 1781.1563 2246.9531 1765.4531 2237.7891 1750.4531 2228.6406 1737.7031 2219.1172 1724.4063 2199.4531 1719.7344 2191.8516 1705.2656 2180.3047 1683.3125 2179.1641 1655.875 2183.0156 1631.375 2189.1563 1592.1641 2208.1016 1554.3047 2232.6484 1523.1172 2258.8125 1489.8281 2299.1406 1470.6406 2332.4063 1444.375" stroke="#000000" stroke-width="15.3438" fill="none"/>
<path d="M2106.2656 2115.6875 C2127.0859 2102.4453 2150.9688 2093.1328 2168.6953 2075.9844 2188.0156 2057.25 2204.8047 2034.5 2214.1797 2009.2734 2227.2734 1973.9531 2218.7031 1933.75 2226.8203 1896.9688 2235.9453 1855.5156 2243.1641 1811.1797 2267.1328 1776.125 2279.4375 1758.0938 2299.0938 1745.9609 2317.5234 1734.2422 2354.3906 1710.8359 2396.4766 1697.0078 2435.9766 1678.375" stroke="#000000" stroke-width="15.3438" fill="none"/>
<path d="M2035.5 2035.8438 C2053.4922 2023.5938 2069.6797 2008.1797 2089.4531 1999.0938 2123.1172 1983.6094 2160.2188 1976.1016 2196.7656 1969.9766 2279.8828 1956.0859 2366.8203 1971.7266 2448.9219 1952.8594 2471.5547 1947.6719 2493.0938 1937.7734 2513.6016 1926.875 2539.1719 1913.2578 2561.6563 1894.4297 2585.6719 1878.1797" stroke="#000000" stroke-width="15.3438" fill="none"/>
<path d="M1969.4609 1941.4141 C2026.4844 1909.5938 2097.4297 1895.0234 2140.5625 1846.0078 2175.9375 1805.7734 2182.8828 1747.4219 2200.2813 1696.7813 2220.3594 1638.2813 2227.4922 1575.3281 2251.9766 1518.5234 2268.9609 1479.0703 2295.4844 1444.4766 2317.2344 1407.4219" stroke="#000000" stroke-width="15.3438" fill="none"/>
<path d="M1910.0078 1839.3516 C1944.0625 1824.0391 1969.2266 1844.5859 1997.9219 1838.6172 2041.6875 1829.4688 2083.3125 1809.5938 2121.3359 1786.0469 2153.4766 1766.1484 2178.9141 1737.0078 2207.7031 1712.5156 2258.7734 1668.0625 2309.8359 1623.6094 2360.9141 1579.1484" stroke="#000000" stroke-width="15.3438" fill="none"/>
<path d="M1852.1875 1726.3281 C1869.5703 1720.0156 1886.0156 1704.8828 1904.3359 1707.3828 1976.0469 1717.1406 2016.0625 1801.9219 2081.3438 1833.2109 2119.7109 1851.6016 2161.7734 1864.1484 2204.1406 1868.0547 2277.8594 1874.8359 2351.2422 1853.7266 2425.25 1847.5 2475.5547 1843.5234 2525.8125 1840.0313 2576.1016 1836.3047" stroke="#000000" stroke-width="15.3438" fill="none"/>
<path d="M1815.5859 1605.5547 C1838.8281 1590.0625 1860.2422 1571.4141 1885.3203 1559.1016 1917.9453 1543.0313 1952.8438 1530.4531 1988.6484 1523.9297 2018.25 1518.5313 2050.4922 1530.9219 2078.8906 1520.9531 2114.3594 1508.5 2138.3906 1474.9219 2169.25 1453.4531 2210.8438 1424.5703 2254.1094 1398.3438 2296.5625 1370.7734" stroke="#000000" stroke-width="15.3438" fill="none"/>
<path d="M1795.6094 1498.4375 C1811.0078 1493.4609 1828.9219 1493.3516 1841.7188 1483.4844 1869.1172 1462.2891 1876.2188 1423.1016 1897.7422 1395.9531 1935.7422 1348.0391 1979.625 1304.5625 2025.7266 1264.3203 2072.0781 1223.8594 2118.2344 1180.1406 2174.2734 1154.6719 2196.8359 1144.3828 2222.7188 1143.875 2246.9688 1138.4766" stroke="#000000" stroke-width="15.3438" fill="none"/>
<path d="M1783.5 1407.9922 C1824.1094 1406.9375 1867.8906 1389.0859 1905.3203 1404.8438 1968.6484 1431.4844 1993.9766 1510.5469 2045.5859 1555.8984 2071.3672 1578.6094 2096.8203 1604.875 2129.3594 1615.9531 2177.2813 1632.2656 2230.6328 1621.7109 2281.2109 1621.2656 2309.9609 1621 2338.6328 1618.3203 2367.375 1616.8438" stroke="#000000" stroke-width="15.3438" fill="none"/>
<path d="M1794.4297 1330.4297 C1827.2031 1339.1172 1863.8203 1338.75 1892.7031 1356.4766 1923.3203 1375.2656 1933.1172 1419.4375 1964.5625 1436.8672 2014.8672 1464.7656 2077.0938 1464.7031 2134.6172 1466.3906 2168.4453 1467.3984 2201.8047 1457.3047 2235.5859 1454.9766 2270.4453 1452.5313 2305.5078 1452.9141 2340.4766 1451.8828" stroke="#000000" stroke-width="15.3438" fill="none"/>
<path d="M1812.5156 1280.0313 C1863.0391 1252.0313 1912.1406 1221.2813 1964.125 1196.0859 1995.7266 1180.7031 2026.3438 1150.1563 2061.2031 1154.8125 2098.9844 1159.8516 2122.5391 1200.2969 2151.1172 1225.5391 2194.9297 1264.2266 2234.3594 1307.6953 2276.0078 1348.7891" stroke="#000000" stroke-width="15.3438" fill="none"/>
<path d="M1854.8125 1252.1641 C1882.2813 1231.2734 1907.1094 1206.3438 1937.2656 1189.5156 1962.3281 1175.5 1992.0313 1171.4609 2017.625 1158.3984 2052.2578 1140.6953 2081.6328 1114.0313 2115.6641 1095.1875 2149.0859 1076.6484 2184.75 1062.5938 2219.3125 1046.2969" stroke="#000000" stroke-width="15.3438" fill="none"/>
<path d="M1900.5 1255.4922 C1942.7969 1234.0156 1981.5391 1203.2109 2027.4063 1191.125 2057.4141 1183.2109 2089.4297 1187.4531 2120.4297 1186.8438 2153.0938 1186.1328 2185.7344 1186.1953 2218.4141 1185.8828" stroke="#000000" stroke-width="15.3438" fill="none"/>
<path d="M1959.8984 1280.6641 C2005.5391 1287.0469 2054.5078 1281.4688 2096.7813 1299.8281 2137.0625 1317.3359 2163.8828 1356.5469 2199.25 1382.7266 2225.2813 1402.0313 2252.7188 1419.3516 2279.4766 1437.6719" stroke="#000000" stroke-width="15.3438" fill="none"/>
<path d="M2033 1346.8828 C2045.7813 1321.9922 2046.3281 1284.8047 2071.3203 1272.2344 2106.1484 1254.7188 2150.7188 1276.3281 2186.6953 1291.3594 2208.2344 1300.3594 2224.5078 1318.7656 2243.4297 1332.4844" stroke="#000000" stroke-width="15.3438" fill="none"/>
<path d="M2095.8594 1420.1875 C2112 1401.6406 2121.9844 1374.9063 2144.2813 1364.5391 2157.8203 1358.2188 2175.8984 1370.6875 2189.1563 1363.7344 2227.5156 1343.5625 2239.5938 1293.1953 2264.8203 1257.9063" stroke="#000000" stroke-width="15.3438" fill="none"/>
<path d="M2216 1610.1641 C2215.9531 1552.4922 2194.5469 1490.7266 2215.8594 1437.1328 2218.9531 1429.3047 2225.7422 1422.6484 2233.2109 1418.7656 2262.3359 1403.6563 2298.1016 1409.2656 2330.5703 1404.5156" stroke="#000000" stroke-width="15.3438" fill="none"/>
<path d="M2165.8203 1522.9609 C2172.5703 1502.0469 2166.5859 1470.4688 2186.0234 1460.2422 2201.3984 1452.1484 2219.5078 1469.75 2236.0391 1475.1328 2269.2813 1486.0703 2302.0313 1498.3125 2335.0313 1509.8984" stroke="#000000" stroke-width="15.3438" fill="none"/>
<path d="M2265.3281 1714.7422 C2285.6172 1702.5391 2302.7734 1681.875 2326.1328 1678.1406 2374.0859 1670.5078 2420.8359 1699.8516 2468.2031 1710.7031" stroke="#000000" stroke-width="15.3438" fill="none"/>
<path d="M2303.6016 1822.2734 C2316.6484 1805.1719 2326.1016 1784.5703 2342.7813 1770.9922 2378.2422 1742.1563 2425.1484 1731.3984 2466.3516 1711.5625" stroke="#000000" stroke-width="15.3438" fill="none"/>
<path d="M2325.1016 1923.0156 C2340.0703 1902.7344 2363.2031 1886.4922 2369.9766 1862.25 2379.6172 1827.6484 2362.3984 1790.75 2360.0703 1754.9063 2356.6094 1701.0234 2355.8359 1646.8125 2353.7266 1592.7266" stroke="#000000" stroke-width="15.3438" fill="none"/>
<path d="M2325.3516 2091.4766 C2346.5703 2065.25 2363.0781 2034.4531 2388.9453 2012.8203 2414.1094 1991.7734 2444.8984 1978.0078 2475.1797 1965.3594 2521.0234 1946.2344 2570.4297 1937.0313 2618.0625 1922.875" stroke="#000000" stroke-width="15.3438" fill="none"/>
<path d="M2310.3672 2146.0625 C2338.9453 2124.2813 2380.6953 2113.1953 2396.0938 2080.7344 2424.5391 2020.6797 2386.0313 1947.8281 2389.2266 1881.4609 2393 1802.0703 2409.9219 1723.8672 2420.2734 1645.0625" stroke="#000000" stroke-width="15.3438" fill="none"/>
<path d="M2275.7109 2180.5156 C2316.4219 2162.0703 2370.7109 2160.7031 2397.8203 2125.1875 2448.4375 2058.8594 2398.0234 1951.5781 2437.3594 1877.9844 2469.2188 1818.3281 2536.5156 1785.9766 2586.0938 1739.9531" stroke="#000000" stroke-width="15.3438" fill="none"/>
<ellipse transform="rotate(-25.2522 2656.3906 1432.6172)" cx="2656.3906" cy="1432.6172" rx="217.2188" ry="542.4297" stroke="#000000" stroke-width="1.25" fill="#cccccc"/>
<defs>
<linearGradient id="_Fill6" gradientUnits="userSpaceOnUse" x1="2662" y1="2230" x2="2086" y2="1098" spreadMethod="pad">
<stop offset="0" stop-color="#ffffff"/>
<stop offset="1" stop-color="#000000"/>
</linearGradient>
</defs>
<path d="M2741.625 1993.7188 C2632.9453 2044.9688 2441 1866.3047 2312.8594 1594.6328 2184.7266 1322.9766 2168.9453 1061.2188 2277.6172 1009.9531 L2425.1641 940.3672 C2316.4844 991.6172 2332.2734 1253.375 2460.4063 1525.0313 2588.5469 1796.7188 2780.4922 1975.3828 2889.1719 1924.1328 L2741.625 1993.7188 Z" fill="url(#_Fill6)"/>
<path d="M2636.9375 1440.7188 C2649.8516 1468.0938 2669.3828 1486.0469 2680.5469 1480.7813 2691.7188 1475.5078 2690.2656 1449.0391 2677.3516 1421.6563 2664.4219 1394.2656 2644.9219 1376.2969 2633.7578 1381.5781 2622.5938 1386.8438 2624.0234 1413.3203 2636.9375 1440.7188 Z" stroke="#000000" stroke-width="1.25" fill="none"/>
<defs>
<linearGradient id="_Fill7" gradientUnits="userSpaceOnUse" x1="3215.1719" y1="2875.8594" x2="2166" y2="298" spreadMethod="pad">
<stop offset="0" stop-color="#ffffff"/>
<stop offset="1" stop-color="#666666"/>
</linearGradient>
</defs>
<path d="M2958.7813 1262.5938 2975.5234 1329.6406 3017.6641 1395.5703 C3027.6406 1411.1953 3037.0391 1435.5 3038.6875 1449.8672 L3045.5938 1510.6172 3082.1875 1583.1719 C3090.8359 1600.375 3097.2266 1624.0703 3096.4219 1636.125 L3093.1016 1687.0781 3121.9922 1762.0234 C3128.8359 1779.7656 3131.8203 1801.5 3128.6563 1810.5313 L3115.2656 1848.7031 3134.7969 1921.7188 C3139.4063 1938.9922 3138.8281 1957.4688 3133.4688 1962.9453 L3110.8281 1986.125 3119.8438 2052.9688 C3121.9922 2068.7656 3143.9922 2070.3359 3136.75 2071.9531 L3082.1094 2097.5938 3093.4297 2155.3203 C3075.3516 2165.0234 3065.9375 2170.6328 3055.5469 2167.8984 L3024.6328 2158.3047 3030.875 2199.0547 C3011.9688 2207.4219 3004.8828 2218.9375 2988.6875 2209.125 L2957.8125 2187.2422 2944.9297 2201.4844 C2921.4375 2217.4609 2906.7656 2214.5 2896.7109 2204.8594 L2854.2656 2164.1563 2822.3516 2174.1563 C2814.8203 2176.5078 2800.6953 2168.25 2790.8281 2155.7031 L2749.1641 2102.7344 2710.3125 2094.6406 C2701.1172 2092.7344 2686.2578 2079.2422 2677.1719 2064.5156 L2638.75 2002.3281 2595.1719 1976.6563 C2584.8594 1970.5625 2570.1563 1952.625 2562.3516 1936.5938 L2529.3828 1868.8281 2483.625 1827.0313 C2472.8203 1817.125 2459.1016 1795.7813 2453.0547 1779.3672 L2427.4375 1709.9375 2382.1953 1654.4453 C2371.4766 1641.3203 2359.5547 1617.7891 2355.6016 1601.9375 L2338.8594 1534.875 2296.7188 1468.9453 C2286.75 1453.3359 2277.3125 1429.0391 2275.6953 1414.6484 L2268.7891 1353.8906 2232.1953 1281.3281 C2223.5234 1264.1641 2217.1563 1240.4609 2217.9297 1228.3906 L2221.2891 1177.4531 2192.3672 1102.4844 C2185.5469 1084.7422 2182.5547 1063.0391 2185.7266 1054 L2199.1094 1015.8125 2179.5703 942.7969 C2174.9531 925.5391 2175.5547 907.0547 2180.9063 901.5859 L2203.5547 878.3828 2194.5156 811.5625 C2192.375 795.7578 2196.5391 781.6094 2203.7734 779.9844 L2234.3516 773.1406 2236.3672 716.3984 C2236.8359 702.9766 2239.3516 698.6328 2271.8203 685.5 L2289.7422 706.2266 2302.6563 662.8125 C2305.7109 652.5625 2323.7969 646.8281 2339.3594 640.5859 L2360.1094 667.2656 2415.7969 639.9141 C2427.9219 649.4453 2407.6094 650.0234 2417.6563 659.6719 L2460.1172 700.375 2492.0313 690.375 C2499.5703 688.0078 2513.6875 696.2734 2523.5391 708.8125 L2565.2031 761.7813 2604.0703 769.875 C2613.2734 771.7813 2628.1094 785.2891 2637.2109 799.9922 L2675.6328 862.1875 2719.2109 887.875 C2729.5156 893.9688 2744.2109 911.8984 2752.0234 927.9141 L2785 995.7031 2830.7578 1037.5078 C2841.5625 1047.3906 2855.2734 1068.75 2861.3281 1085.1563 L2886.9297 1154.5938 2932.1953 1210.0703 C2942.9063 1223.2109 2954.8281 1246.7188 2958.7813 1262.5938 Z" fill="url(#_Fill7)"/>
<defs>
<linearGradient id="_Fill8" gradientUnits="userSpaceOnUse" x1="3102" y1="2358" x2="2398" y2="226" spreadMethod="pad">
<stop offset="0" stop-color="#f3f3f3"/>
<stop offset="1" stop-color="#999999"/>
</linearGradient>
</defs>
<path d="M2983.375 1251 3000.1328 1318.0313 3042.2578 1383.9766 C3052.2344 1399.5859 3061.6484 1423.8984 3063.2813 1438.2578 L3070.1875 1499.0234 3106.7813 1571.5703 C3115.4453 1588.7734 3121.8203 1612.4766 3121.0156 1624.5156 L3117.6953 1675.4844 3146.5938 1750.4297 C3153.4297 1768.1641 3156.4219 1789.9063 3153.25 1798.9219 L3139.8672 1837.1094 3159.4063 1910.125 C3164.0078 1927.3828 3163.4219 1945.8594 3158.0703 1951.3359 L3135.4219 1974.5313 3144.4531 2041.3594 C3146.5938 2057.1641 3142.4375 2071.3203 3135.2031 2072.9375 L3104.625 2079.7813 3102.6094 2136.5313 C3102.1328 2149.9453 3094.6875 2158.9375 3086 2156.6172 L3049.2266 2146.7109 3036.3125 2190.0938 C3033.2656 2200.3594 3022.9375 2203.6719 3013.2969 2197.5156 L2972.4922 2171.4609 2949.4063 2198.9219 C2943.9375 2205.4219 2931.3594 2202.9063 2921.3125 2193.2578 L2878.8594 2152.5469 2846.9453 2162.5469 C2839.4141 2164.9141 2825.3047 2156.6406 2815.4219 2144.1094 L2773.7656 2091.125 2734.9063 2083.0313 C2725.7109 2081.125 2710.8516 2067.6328 2701.7656 2052.9063 L2663.3438 1990.7344 2619.7656 1965.0469 C2609.4531 1958.9688 2594.75 1941.0234 2586.9531 1924.9922 L2553.9766 1857.2266 2508.2266 1815.4219 C2497.4141 1805.5313 2483.7031 1784.1875 2477.6484 1767.7578 L2452.0469 1698.3359 2406.7891 1642.8516 C2396.0703 1629.7109 2384.1641 1606.1953 2380.1953 1590.3281 L2363.4531 1523.2813 2321.3125 1457.3438 C2311.3516 1441.7266 2301.9219 1417.4297 2300.2891 1403.0547 L2293.3828 1342.2813 2256.7891 1269.7266 C2248.125 1252.5547 2241.75 1228.8516 2242.5313 1216.7891 L2245.8828 1165.8438 2216.9766 1090.875 C2210.1406 1073.1484 2207.1563 1051.4297 2210.3203 1042.3984 L2223.7031 1004.2109 2204.1641 931.2031 C2199.5469 913.9375 2200.1484 895.4453 2205.5 889.9844 L2228.1641 866.7813 2219.1094 799.9531 C2216.9766 784.1484 2221.1328 770.0078 2228.3672 768.375 L2258.9453 761.5313 2260.9609 704.7891 C2261.4375 691.3672 2268.8828 682.375 2277.5781 684.7109 L2314.3438 694.6172 2327.2656 651.2188 C2330.3047 640.9688 2340.6172 637.6484 2350.2734 643.8047 L2391.0703 669.8516 2414.1641 642.4063 C2419.625 635.9063 2432.2109 638.4141 2442.25 648.0625 L2484.7109 688.7813 2516.625 678.7734 C2524.1641 676.4141 2538.2813 684.6641 2548.1406 697.2188 L2589.7969 750.1875 2628.6719 758.2734 C2637.875 760.1797 2652.7188 773.6875 2661.8047 788.3828 L2700.2266 850.5859 2743.8047 876.2813 C2754.1172 882.3594 2768.8203 900.2891 2776.6172 916.3203 L2809.5938 984.1016 2855.3516 1025.9141 C2866.1719 1035.7969 2879.8672 1057.1406 2885.9219 1073.5547 L2911.5391 1142.9922 2956.7891 1198.4766 C2967.5156 1211.6016 2979.4219 1235.125 2983.375 1251 Z" fill="url(#_Fill8)"/>
<path d="M2889.6719 1154.8594 2846.3125 1175.3203 2880.3203 1233.3594 2896.5234 1217.8984 2889.6719 1154.8594 Z" stroke="#000000" stroke-width="1.25" fill="#000000"/>
<polygon points="2917.125 1309.7422 2944.7891 1443.8594 2974.9375 1449.8438 2982.0078 1568.5391 3015.8359 1588.2266 3001.8828 1684.5469 3037.4609 1716.8047 3003.2969 1785.1797 3038.5625 1828.1328 2986.1484 1864.5469 3019.0313 1915.7031 2951.4688 1918.0781 2980.0313 1974.4609 2901.1953 1942.6328 2923.8281 2000.9766 2838.3359 1936.8047 2853.6875 1993.6797 2766.4922 1900.9297 2773.7031 1953.0703 2689.8594 1837.0859 2688.4922 1881.4063 2612.8828 1748.9688 2603.0234 1782.9375 2540.0547 1641.7109 2522.25 1663.3594 2475.5859 1521.5469 2450.9063 1529.6406 2423.2188 1395.4766 2393.0703 1389.5 2386.0078 1270.7969 2352.1719 1251.0859 2366.125 1154.7734 2330.5625 1122.5391 2364.7031 1054.1797 2329.4688 1011.2109 2381.8516 974.7891 2348.9922 923.625 2416.5625 921.2578 2387.9609 864.875 2466.8203 896.6797 2444.1719 838.3594 2529.6797 902.5313 2514.2969 845.6563 2601.5 938.4063 2594.3281 886.2813 2678.1406 1002.2656 2679.5156 957.9063 2755.1172 1090.3828 2764.9844 1056.375 2827.9531 1197.625 2845.7578 1175.9922 2892.4297 1317.7813" fill="#666666"/>
<defs>
<linearGradient id="_Fill9" gradientUnits="userSpaceOnUse" x1="2713.0469" y1="2023.1797" x2="2259.7969" y2="1208.5234" spreadMethod="pad">
<stop offset="0" stop-color="#cccccc"/>
<stop offset="1" stop-color="#000000"/>
</linearGradient>
</defs>
<path d="M2979.3281 1974.5313 3024.9141 1952.4297 2947.3906 1922.1406 2901.3516 1942.0469 2979.3281 1974.5313 Z" fill="url(#_Fill9)"/>
<defs>
<linearGradient id="_Fill10" gradientUnits="userSpaceOnUse" x1="2713.0469" y1="2023.1797" x2="2259.7969" y2="1208.5234" spreadMethod="pad">
<stop offset="0" stop-color="#cccccc"/>
<stop offset="1" stop-color="#000000"/>
</linearGradient>
</defs>
<path d="M2924.6328 2000.3281 2968.75 1978.9219 2884.6406 1916.7891 2838.5391 1939.1328 2924.6328 2000.3281 Z" fill="url(#_Fill10)"/>
<defs>
<linearGradient id="_Fill11" gradientUnits="userSpaceOnUse" x1="2713.0469" y1="2023.1797" x2="2259.7969" y2="1208.5234" spreadMethod="pad">
<stop offset="0" stop-color="#cccccc"/>
<stop offset="1" stop-color="#000000"/>
</linearGradient>
</defs>
<path d="M2898.75 1970.9688 2812.6172 1880.2969 2768.1953 1903.6484 2853.3906 1992.0781 2898.75 1970.9688 Z" fill="url(#_Fill11)"/>
<defs>
<linearGradient id="_Fill12" gradientUnits="userSpaceOnUse" x1="2713.0469" y1="2023.1797" x2="2259.7969" y2="1208.5234" spreadMethod="pad">
<stop offset="0" stop-color="#cccccc"/>
<stop offset="1" stop-color="#000000"/>
</linearGradient>
</defs>
<path d="M2771.7266 1951.9844 2817.5781 1929.1406 2736.2891 1818.1016 2692.1563 1840.7422 2771.7266 1951.9844 Z" fill="url(#_Fill12)"/>
<defs>
<linearGradient id="_Fill13" gradientUnits="userSpaceOnUse" x1="2713.0469" y1="2023.1797" x2="2259.7969" y2="1208.5234" spreadMethod="pad">
<stop offset="0" stop-color="#cccccc"/>
<stop offset="1" stop-color="#000000"/>
</linearGradient>
</defs>
<path d="M2688.5625 1880.375 2733.4375 1858.0078 2658.3906 1729.5625 2614.5391 1750.25 2688.5625 1880.375 Z" fill="url(#_Fill13)"/>
<defs>
<linearGradient id="_Fill14" gradientUnits="userSpaceOnUse" x1="2713.0469" y1="2023.1797" x2="2259.7969" y2="1208.5234" spreadMethod="pad">
<stop offset="0" stop-color="#cccccc"/>
<stop offset="1" stop-color="#000000"/>
</linearGradient>
</defs>
<path d="M2602.6172 1781.1641 2646.6719 1762.1953 2585.8281 1620.4297 2540.6797 1644.75 2602.6172 1781.1641 Z" fill="url(#_Fill14)"/>
<defs>
<linearGradient id="_Fill15" gradientUnits="userSpaceOnUse" x1="2463.0313" y1="1308.4063" x2="2743.5938" y2="1150.0391" spreadMethod="pad">
<stop offset="0" stop-color="#cccccc"/>
<stop offset="1" stop-color="#000000"/>
</linearGradient>
</defs>
<path d="M2445.0938 839.3203 2490.1953 817.4375 2510.3672 872.9844 2462.3516 883.5703 2445.0938 839.3203 Z" fill="url(#_Fill15)"/>
<defs>
<linearGradient id="_Fill16" gradientUnits="userSpaceOnUse" x1="2463.0313" y1="1308.4063" x2="2743.5938" y2="1150.0391" spreadMethod="pad">
<stop offset="0" stop-color="#cccccc"/>
<stop offset="1" stop-color="#000000"/>
</linearGradient>
</defs>
<path d="M2560.1641 826.6094 2515.5938 847.0234 2599.3203 936.4297 2645.1172 916.0313 2560.1641 826.6094 Z" fill="url(#_Fill16)"/>
<defs>
<linearGradient id="_Fill17" gradientUnits="userSpaceOnUse" x1="2463.0313" y1="1308.4063" x2="2743.5938" y2="1150.0391" spreadMethod="pad">
<stop offset="0" stop-color="#cccccc"/>
<stop offset="1" stop-color="#000000"/>
</linearGradient>
</defs>
<path d="M2639.6797 866.1953 2589.6797 889.1797 2623.8516 939.9219 2669.3516 921.4688 2639.6797 866.1953 Z" fill="url(#_Fill17)"/>
<defs>
<linearGradient id="_Fill18" gradientUnits="userSpaceOnUse" x1="2463.0313" y1="1308.4063" x2="2743.5938" y2="1150.0391" spreadMethod="pad">
<stop offset="0" stop-color="#cccccc"/>
<stop offset="1" stop-color="#000000"/>
</linearGradient>
</defs>
<path d="M2725.0547 937.3672 2677.5156 959.1797 2718.1172 1005.6797 2743.3281 990.1797 2725.0547 937.3672 Z" fill="url(#_Fill18)"/>
<defs>
<linearGradient id="_Fill19" gradientUnits="userSpaceOnUse" x1="2463.0313" y1="1308.4063" x2="2743.5938" y2="1150.0391" spreadMethod="pad">
<stop offset="0" stop-color="#cccccc"/>
<stop offset="1" stop-color="#000000"/>
</linearGradient>
</defs>
<path d="M2811.0234 1035.3516 2778.7422 1051.1953 2796.1016 1090.5859 2821.2578 1077.5156 2811.0234 1035.3516 Z" stroke="#000000" stroke-width="1.25" fill="url(#_Fill19)"/>
<defs>
<linearGradient id="_Fill20" gradientUnits="userSpaceOnUse" x1="2713.0469" y1="2023.1797" x2="2259.7969" y2="1208.5234" spreadMethod="pad">
<stop offset="0" stop-color="#cccccc"/>
<stop offset="1" stop-color="#000000"/>
</linearGradient>
</defs>
<path d="M3064.2734 1894.1016 3019.3984 1916.4688 2960.6406 1918.3047 2976.2188 1897.6875 3064.2734 1894.1016 Z" fill="url(#_Fill20)"/>
<polygon points="2961.9766 1288.5938 2989.625 1422.7188 3019.7734 1428.6953 3026.8516 1547.3828 3060.6797 1567.0781 3046.7266 1663.3906 3082.2969 1695.6641 3048.1563 1764.0313 3083.3984 1806.9844 3031 1843.3906 3063.8672 1894.5469 2996.3047 1896.9297 3024.8828 1953.3047 2946.0469 1921.4766 2968.6797 1979.8203 2883.1719 1915.6563 2898.5391 1972.5313 2811.3594 1879.7578 2818.5547 1931.9141 2734.7031 1815.9297 2733.3359 1860.25 2657.7266 1727.8125 2647.8594 1761.7891 2584.9063 1620.5625 2567.0703 1642.2031 2520.4219 1500.3906 2495.7422 1508.5 2468.0703 1374.3203 2437.9063 1368.3516 2430.8438 1249.6563 2397.0078 1229.9375 2410.9766 1133.625 2375.4063 1101.3906 2409.5469 1033.0234 2374.3203 990.0547 2426.6953 953.6406 2393.8281 902.4688 2461.4141 900.1094 2432.8125 843.7266 2511.6563 875.5234 2489.0313 817.2109 2574.5313 881.375 2559.1484 824.5 2646.3516 917.2578 2639.1641 865.125 2722.9766 981.1094 2724.3594 936.7656 2799.9766 1069.2266 2809.8203 1035.2344 2872.8047 1176.4844 2890.6016 1154.8359 2937.2734 1296.625" fill="#808080"/>
<path d="M2702.125 1409.9219 C2720.3516 1448.5703 2747.6406 1473.9453 2763.1172 1466.6563 2778.5703 1459.3672 2776.3516 1422.1563 2758.125 1383.5156 2739.9063 1344.8906 2712.6016 1319.4922 2697.1484 1326.7891 2681.6797 1334.0781 2683.9063 1371.3125 2702.125 1409.9219 Z" stroke="#000000" stroke-width="1.25" fill="#cccccc"/>
<ellipse transform="rotate(-25.2504 2730.9453 1397.4375)" cx="2730.9453" cy="1397.4375" rx="217.5391" ry="543.8438" stroke="#000000" stroke-width="1.25" fill="none"/>
<path d="M2908.9063 1811.1563 C2917.5938 1829.5625 2930.5781 1841.6406 2937.9375 1838.1641 2945.3125 1834.6953 2944.25 1816.9844 2935.5781 1798.5859 2926.9063 1780.2188 2913.9063 1768.1094 2906.5469 1771.5859 2899.1875 1775.0625 2900.25 1792.7969 2908.9063 1811.1563 Z" stroke="#000000" stroke-width="1.25" fill="none"/>
<path d="M2860.0938 1809.2969 C2866.7188 1827.9922 2879.5859 1844.0391 2888.8203 1845.1328 2898.0703 1846.2188 2900.2188 1831.9766 2893.5859 1813.2891 2886.9766 1794.6328 2874.0859 1778.5859 2864.8359 1777.4844 2855.6094 1776.3828 2853.4844 1790.6406 2860.0938 1809.2969 Z" stroke="#000000" stroke-width="1.25" fill="none"/>
<path d="M2803.5625 1782.9141 C2807.7344 1800.7734 2819.6875 1819.7891 2830.2813 1825.3906 2840.8672 1830.9922 2846.0391 1821.0469 2841.875 1803.2266 2837.7031 1785.375 2825.75 1766.3516 2815.1563 1760.7578 2804.5781 1755.1328 2799.3906 1765.0703 2803.5625 1782.9141 Z" stroke="#000000" stroke-width="1.25" fill="none"/>
<path d="M2742.5625 1733.2578 C2744.0313 1749.2344 2754.375 1770.0938 2765.6563 1779.8672 2776.9375 1789.6563 2784.8906 1784.6406 2783.4141 1768.6953 2781.9297 1752.7422 2771.5938 1731.8828 2760.3047 1722.0938 2749.0234 1712.3203 2741.0938 1717.3438 2742.5625 1733.2578 Z" stroke="#000000" stroke-width="1.25" fill="none"/>
<path d="M2677.2031 1658.8594 C2675.7422 1671.7656 2683.6797 1693.1953 2694.9609 1706.7422 2706.25 1720.2813 2716.5859 1720.8125 2718.0625 1707.9297 2719.5391 1695.0156 2711.5859 1673.5781 2700.3125 1660.0234 2689.0313 1646.4766 2678.6953 1645.9609 2677.2031 1658.8594 Z" stroke="#000000" stroke-width="1.25" fill="none"/>
<path d="M2618.7422 1572.3906 C2614.5703 1581.5859 2619.7656 1602.2734 2630.3672 1618.5469 2640.9297 1634.8203 2652.8984 1640.5469 2657.0703 1631.3281 2661.2422 1622.1172 2656.0547 1601.4297 2645.4766 1585.1563 2634.875 1568.875 2622.9297 1563.1641 2618.7422 1572.3906 Z" stroke="#000000" stroke-width="1.25" fill="none"/>
<path d="M2566.9922 1475.5547 C2560.3672 1480.5547 2562.5 1499.2188 2571.75 1517.2422 2581.0078 1535.2656 2593.875 1545.8359 2600.4844 1540.8594 2607.1016 1535.8594 2604.9688 1517.1875 2595.7344 1499.1875 2586.4609 1481.1328 2573.5938 1470.5781 2566.9922 1475.5547 Z" stroke="#000000" stroke-width="1.25" fill="none"/>
<path d="M2525.0313 1373.9844 C2516.3516 1374.4297 2515.2891 1389.9609 2522.6563 1408.6563 2530.0156 1427.3594 2543.0156 1442.1484 2551.7031 1441.7188 2560.3594 1441.2344 2561.4141 1425.6953 2554.0625 1407.0234 2546.6719 1388.2891 2533.6875 1373.5078 2525.0313 1373.9844 Z" stroke="#000000" stroke-width="1.25" fill="none"/>
<path d="M2494.0078 1268.1797 C2483.7422 1263.8203 2479.375 1274.9922 2484.2813 1293.1953 2489.1719 1311.3906 2501.4688 1329.6875 2511.7188 1334.0547 2521.9922 1338.4297 2526.3594 1327.2031 2521.4688 1309.0234 2516.5781 1290.8203 2504.2969 1272.5469 2494.0078 1268.1797 Z" stroke="#000000" stroke-width="1.25" fill="none"/>
<path d="M2479.3516 1176.125 C2468.1797 1167.4375 2460.9453 1173.8438 2463.2031 1190.4297 2465.4531 1207.0234 2476.3203 1227.4922 2487.4688 1236.1406 2498.6094 1244.8125 2505.8438 1238.3828 2503.5859 1221.7969 2501.3359 1205.2109 2490.4844 1184.7656 2479.3516 1176.125 Z" stroke="#000000" stroke-width="1.25" fill="none"/>
<path d="M2479.6328 1097.3125 C2468.25 1084.875 2458.6172 1086.1328 2458.0938 1100.1172 2457.5781 1114.1016 2466.3438 1135.5156 2477.7109 1147.9297 2489.0703 1160.375 2498.7188 1159.1094 2499.2344 1145.1484 2499.7734 1131.1641 2490.9844 1109.7578 2479.6328 1097.3125 Z" stroke="#000000" stroke-width="1.25" fill="none"/>
<path d="M2495.0391 1036.6094 C2484.125 1021.1406 2472.6484 1017.1328 2469.375 1027.6875 2466.0938 1038.2031 2472.2656 1059.2891 2483.1563 1074.7656 2494.0469 1090.1875 2505.5313 1094.1797 2508.8281 1083.6641 2512.0938 1073.1016 2505.9141 1052.0469 2495.0391 1036.6094 Z" stroke="#000000" stroke-width="1.25" fill="none"/>
<path d="M2524.4688 997.4688 C2514.7031 979.8906 2502.0547 970.8984 2496.2266 977.3594 2490.3984 983.8359 2493.6094 1003.3125 2503.3594 1020.8672 2513.1328 1038.4063 2525.7891 1047.4063 2531.625 1040.9766 2537.4375 1034.4531 2534.2266 1015 2524.4688 997.4688 Z" stroke="#000000" stroke-width="1.25" fill="none"/>
<path d="M2613.6016 989.6875 C2607.5781 971.1094 2594.8828 954.2109 2585.2266 951.9844 2575.6016 949.75 2572.6484 962.9453 2578.6953 981.5313 2584.7344 1000.0938 2597.4453 1016.9766 2607.1016 1019.2188 2616.7188 1021.4922 2619.6484 1008.2344 2613.6016 989.6875 Z" stroke="#000000" stroke-width="1.25" fill="none"/>
<path d="M2670.2578 1021.1406 C2666.6875 1003.6484 2655.0313 984.1016 2644.25 977.5156 2633.4609 970.9063 2627.5859 979.7188 2631.1563 997.2422 2634.7188 1014.7266 2646.3594 1034.2734 2657.1797 1040.8906 2667.9375 1047.4609 2673.8359 1038.6719 2670.2578 1021.1406 Z" stroke="#000000" stroke-width="1.25" fill="none"/>
<path d="M2734.0234 1078.0859 C2733.2813 1062.7734 2723.4922 1041.6328 2712.1719 1030.8906 2700.8047 1020.0469 2692.2188 1023.7031 2692.9297 1038.9453 2693.6719 1054.2344 2703.4766 1075.3906 2714.8125 1086.1719 2726.1563 1096.9531 2734.75 1093.3281 2734.0234 1078.0859 Z" stroke="#000000" stroke-width="1.25" fill="none"/>
<path d="M2794.8594 1151.9141 C2796.8672 1139.6563 2789.4609 1118.2969 2778.2344 1104.1094 2767.0703 1089.9844 2756.3516 1088.3984 2754.3359 1100.6484 2752.2969 1112.8672 2759.7578 1134.2578 2770.9219 1148.3828 2782.1172 1162.5469 2792.8281 1164.1328 2794.8594 1151.9141 Z" stroke="#000000" stroke-width="1.25" fill="none"/>
<path d="M2852.2344 1240.8906 C2856.9375 1232.4922 2852.3438 1212.1719 2841.9688 1195.4297 2831.6016 1178.7031 2819.3906 1172.0078 2814.7109 1180.3906 2810.0391 1188.7813 2814.6406 1209.1953 2824.9922 1225.8672 2835.3672 1242.5703 2847.5625 1249.2969 2852.2344 1240.8906 Z" stroke="#000000" stroke-width="1.25" fill="none"/>
<path d="M2895.2422 1323.7656 C2901.9688 1319 2899.9766 1300.4609 2890.7891 1282.3594 2881.6172 1264.3125 2868.7266 1253.5078 2862.0078 1258.3047 2855.2813 1263.0625 2857.2734 1281.6406 2866.4609 1299.7109 2875.6328 1317.7813 2888.5391 1328.5625 2895.2422 1323.7656 Z" stroke="#000000" stroke-width="1.25" fill="none"/>
<path d="M2934.0703 1418.0313 C2942.6641 1417.4453 2943.6484 1401.8438 2936.2266 1383.1484 2928.8047 1364.4297 2915.7891 1349.75 2907.1563 1350.3125 2898.5625 1350.9141 2897.6016 1366.5781 2905.0156 1385.2578 2912.4375 1403.9531 2925.4453 1418.6328 2934.0703 1418.0313 Z" stroke="#000000" stroke-width="1.25" fill="none"/>
<path d="M2963.3984 1515.2969 C2973.5234 1519.1328 2977.5234 1507.4453 2972.3359 1489.1094 2967.1406 1470.8047 2954.7422 1452.8516 2944.6328 1449.0156 2934.4844 1445.1563 2930.4922 1456.9063 2935.6719 1475.2109 2940.8438 1493.4922 2953.2813 1511.4844 2963.3984 1515.2969 Z" stroke="#000000" stroke-width="1.25" fill="none"/>
<path d="M2979.2891 1603.6641 C2990.3203 1611.6172 2997.0938 1604.3594 2994.3594 1587.4297 2991.6406 1570.4688 2980.4844 1550.2891 2969.4297 1542.3594 2958.3906 1534.4141 2951.6484 1541.7109 2954.3672 1558.6719 2957.1016 1575.6016 2968.2422 1595.7578 2979.2891 1603.6641 Z" stroke="#000000" stroke-width="1.25" fill="none"/>
<path d="M2981.9375 1680.4688 C2993.3203 1692.0938 3002.4219 1689.5469 3002.3047 1674.8906 3002.1484 1660.2031 2992.8281 1638.9063 2981.4609 1627.3125 2970.0703 1615.7031 2960.9688 1618.2109 2961.1094 1632.8984 2961.2422 1647.5781 2970.5703 1668.875 2981.9375 1680.4688 Z" stroke="#000000" stroke-width="1.25" fill="none"/>
<path d="M2969.9688 1746.3984 C2981.0781 1761.3047 2992.1641 1764.0625 2994.8203 1752.6719 2997.4766 1741.2813 2990.6797 1720.0313 2979.6094 1705.1641 2968.5703 1690.375 2957.4297 1687.5469 2954.75 1698.9141 2952.1172 1710.3438 2958.9375 1731.6016 2969.9688 1746.3984 Z" stroke="#000000" stroke-width="1.25" fill="none"/>
<path d="M2945.5703 1788.8906 C2955.7344 1805.9609 2968.1094 1813.5391 2973.2344 1805.8594 2978.3516 1798.1797 2974.2734 1778.1563 2964.1328 1761.0781 2953.9609 1744.0234 2941.5859 1736.4375 2936.4688 1744.1094 2931.3438 1751.8359 2935.4219 1771.8594 2945.5703 1788.8906 Z" stroke="#000000" stroke-width="1.25" fill="none"/>
<path d="M2564.5313 981.375 C2556.4375 962.8047 2543.3984 949.4297 2535.4141 951.5781 2527.4531 953.6875 2527.5391 970.4609 2535.6563 989.0625 2543.7734 1007.625 2556.8047 1021 2564.7969 1018.8516 2572.7578 1016.75 2572.6484 999.9375 2564.5313 981.375 Z" stroke="#000000" stroke-width="1.25" fill="none"/>
<defs>
<linearGradient id="_Fill21" gradientUnits="userSpaceOnUse" x1="2729.5469" y1="1354.1016" x2="2744.9844" y2="1439.6172" spreadMethod="pad">
<stop offset="0" stop-color="#999999"/>
<stop offset="1" stop-color="#000000"/>
</linearGradient>
</defs>
<path d="M2710.1094 1406.1563 C2723.1328 1433.7656 2742.6328 1451.9063 2753.6875 1446.6953 2764.7422 1441.4766 2763.1484 1414.8906 2750.125 1387.2734 2737.1016 1359.6797 2717.5938 1341.5234 2706.5391 1346.7422 2695.4922 1351.9531 2697.0859 1378.5547 2710.1094 1406.1563 Z" stroke="#000000" stroke-width="1.25" fill="url(#_Fill21)"/>
<g>
<path d="M2903.8281 1350.8516 C2897.2031 1355.8516 2899.3438 1374.5156 2908.5703 1392.5234 2917.8281 1410.5625 2930.6953 1421.1406 2937.3203 1416.1484 2943.9375 1411.1563 2941.8047 1392.4922 2932.5547 1374.4766 2923.2891 1356.4297 2910.4219 1345.875 2903.8281 1350.8516 Z" stroke="#000000" stroke-width="1.25" fill="#ffcc4f"/>
<defs>
<linearGradient id="_Fill22" gradientUnits="userSpaceOnUse" x1="2941.8359" y1="1395.5313" x2="2951.5859" y2="1341.7188" spreadMethod="pad">
<stop offset="0" stop-color="#fff5e1"/>
<stop offset="1" stop-color="#c08200"/>
</linearGradient>
</defs>
<path d="M2947.0078 1344.2109 2909.6172 1361.7891 C2905.9609 1364.75 2907.9609 1376.8672 2914.0313 1388.8516 2920.0938 1400.8594 2927.9766 1408.1875 2931.6094 1405.2344 L2967.5469 1388.1484 C2979.9688 1382.2969 2985.2734 1367.9141 2979.4063 1355.4922 2973.5547 1343.0859 2959.4219 1338.3594 2947.0078 1344.2109 Z" stroke="#000000" stroke-width="1.25" fill="url(#_Fill22)"/>
<path d="M2949 1349.9063 2913.7422 1366.5391 C2910.5156 1369.125 2913.3594 1380.125 2917.8516 1388.6484 2921.9922 1395.5625 2921.9922 1395.8906 2926.7734 1400.2734" stroke="#000000" stroke-width="1.25" fill="none"/>
</g>
<g>
<path d="M2937.8359 1448.8516 C2931.2109 1453.8594 2933.3516 1472.5078 2942.5938 1490.5313 2951.8516 1508.5703 2964.7188 1519.1484 2971.3281 1514.1563 2977.9453 1509.1719 2975.8125 1490.5 2966.5781 1472.4844 2957.3047 1454.4375 2944.4375 1443.8828 2937.8359 1448.8516 Z" stroke="#000000" stroke-width="1.25" fill="#ffcc4f"/>
<defs>
<linearGradient id="_Fill23" gradientUnits="userSpaceOnUse" x1="2975.8594" y1="1493.5469" x2="2985.6094" y2="1439.7266" spreadMethod="pad">
<stop offset="0" stop-color="#fff5e1"/>
<stop offset="1" stop-color="#c08200"/>
</linearGradient>
</defs>
<path d="M2981.0156 1442.2188 2943.625 1459.7891 C2939.9766 1462.7578 2941.9688 1474.8594 2948.0469 1486.8672 2954.1172 1498.8672 2961.9844 1506.1953 2965.6172 1503.2422 L3001.5703 1486.1563 C3013.9922 1480.3047 3019.2813 1465.9297 3013.4297 1453.5 3007.5625 1441.0938 2993.4375 1436.3672 2981.0156 1442.2188 Z" stroke="#000000" stroke-width="1.25" fill="url(#_Fill23)"/>
<path d="M2983.0078 1447.9141 2947.75 1464.5469 C2944.5391 1467.1406 2947.3672 1478.125 2951.875 1486.6563 2956.0156 1493.5703 2956 1493.9063 2960.7891 1498.2813" stroke="#000000" stroke-width="1.25" fill="none"/>
</g>
<g>
<path d="M2958.0625 1540.6797 C2951.4453 1545.6953 2953.5781 1564.3438 2962.8203 1582.3672 2972.0781 1600.3984 2984.9453 1610.9766 2991.5547 1605.9922 2998.1797 1601 2996.0391 1582.3281 2986.8047 1564.3203 2977.5391 1546.2734 2964.6719 1535.7188 2958.0625 1540.6797 Z" stroke="#000000" stroke-width="1.25" fill="#ffcc4f"/>
<defs>
<linearGradient id="_Fill24" gradientUnits="userSpaceOnUse" x1="2996.0859" y1="1585.375" x2="3005.8359" y2="1531.5547" spreadMethod="pad">
<stop offset="0" stop-color="#fff5e1"/>
<stop offset="1" stop-color="#c08200"/>
</linearGradient>
</defs>
<path d="M3001.2422 1534.0547 2963.8516 1551.6172 C2960.2109 1554.5938 2962.2031 1566.6953 2968.2813 1578.6953 2974.3516 1590.7031 2982.2109 1598.0234 2985.8594 1595.0781 L3021.7969 1577.9922 C3034.2266 1572.1406 3039.5078 1557.7578 3033.6563 1545.3359 3027.8047 1532.9219 3013.6719 1528.2031 3001.2422 1534.0547 Z" stroke="#000000" stroke-width="1.25" fill="url(#_Fill24)"/>
<path d="M3003.25 1539.75 2967.9844 1556.3828 C2964.7656 1558.9688 2967.5938 1569.9531 2972.1094 1578.4922 2976.2422 1585.3984 2976.2344 1585.7344 2981.0156 1590.1094" stroke="#000000" stroke-width="1.25" fill="none"/>
</g>
<g>
<path d="M2965.3672 1621.4219 C2958.7578 1626.4219 2960.8828 1645.0859 2970.125 1663.1094 2979.3828 1681.1328 2992.25 1691.7031 2998.8594 1686.7266 3005.4922 1681.7266 3003.3438 1663.0703 2994.1094 1645.0625 2984.8438 1627.0078 2971.9766 1616.4453 2965.3672 1621.4219 Z" stroke="#000000" stroke-width="1.25" fill="#ffcc4f"/>
<defs>
<linearGradient id="_Fill25" gradientUnits="userSpaceOnUse" x1="3003.3906" y1="1666.1016" x2="3013.1406" y2="1612.2891" spreadMethod="pad">
<stop offset="0" stop-color="#fff5e1"/>
<stop offset="1" stop-color="#c08200"/>
</linearGradient>
</defs>
<path d="M3008.5625 1614.7891 2971.1719 1632.3594 C2967.5156 1635.3203 2969.5156 1647.4297 2975.5859 1659.4219 2981.6484 1671.4297 2989.5313 1678.7578 2993.1641 1675.8203 L3029.1016 1658.7266 C3041.5234 1652.8672 3046.8281 1638.4844 3040.9609 1626.0781 3035.1094 1613.6563 3020.9688 1608.9297 3008.5625 1614.7891 Z" stroke="#000000" stroke-width="1.25" fill="url(#_Fill25)"/>
<path d="M3010.5547 1620.4766 2975.2813 1637.1094 C2972.0703 1639.6953 2974.9141 1650.6953 2979.4063 1659.2344 2983.5469 1666.1406 2983.5469 1666.4609 2988.3203 1670.8438" stroke="#000000" stroke-width="1.25" fill="none"/>
</g>
<g>
<path d="M2862.2031 1257.7969 C2855.5781 1262.7969 2857.7188 1281.4609 2866.9531 1299.4844 2876.2109 1317.5078 2889.0781 1328.0938 2895.6953 1323.1016 2902.3125 1318.1016 2900.1797 1299.4453 2890.9375 1281.4297 2881.6641 1263.3828 2868.7969 1252.8203 2862.2031 1257.7969 Z" stroke="#000000" stroke-width="1.25" fill="#ffcc4f"/>
<defs>
<linearGradient id="_Fill26" gradientUnits="userSpaceOnUse" x1="2900.2188" y1="1302.4766" x2="2909.9766" y2="1248.6719" spreadMethod="pad">
<stop offset="0" stop-color="#fff5e1"/>
<stop offset="1" stop-color="#c08200"/>
</linearGradient>
</defs>
<path d="M2905.3828 1251.1641 2867.9922 1268.7344 C2864.3359 1271.6953 2866.3359 1283.8047 2872.4063 1295.7969 2878.4766 1307.8047 2886.3516 1315.1328 2889.9844 1312.1953 L2925.9375 1295.1016 C2938.3516 1289.2422 2943.6484 1274.8594 2937.7891 1262.4531 2931.9297 1250.0234 2917.7969 1245.3047 2905.3828 1251.1641 Z" stroke="#000000" stroke-width="1.25" fill="url(#_Fill26)"/>
<path d="M2907.375 1256.8516 2872.1172 1273.4844 C2868.8906 1276.0703 2871.7344 1287.0703 2876.2344 1295.6094 2880.3672 1302.5156 2880.3672 1302.8359 2885.1563 1307.2188" stroke="#000000" stroke-width="1.25" fill="none"/>
</g>
<g>
<path d="M2758.6563 1093.9453 C2752.0469 1098.9453 2754.1641 1117.6016 2763.4141 1135.6172 2772.6719 1153.6484 2785.5391 1164.2266 2792.1563 1159.2344 2798.7734 1154.25 2796.6406 1135.5781 2787.3984 1117.5625 2778.125 1099.5156 2765.2578 1088.9688 2758.6563 1093.9453 Z" stroke="#000000" stroke-width="1.25" fill="#ffcc4f"/>
<defs>
<linearGradient id="_Fill27" gradientUnits="userSpaceOnUse" x1="2796.6797" y1="1138.625" x2="2806.4297" y2="1084.8047" spreadMethod="pad">
<stop offset="0" stop-color="#fff5e1"/>
<stop offset="1" stop-color="#c08200"/>
</linearGradient>
</defs>
<path d="M2801.8438 1087.2969 2764.4531 1104.8828 C2760.7969 1107.8438 2762.8047 1119.9375 2768.8672 1131.9453 2774.9375 1143.9453 2782.8125 1151.2734 2786.4531 1148.3281 L2822.3906 1131.2344 C2834.8125 1125.3828 2840.1094 1111.0078 2834.25 1098.5859 2828.3984 1086.1719 2814.2578 1081.4453 2801.8438 1087.2969 Z" stroke="#000000" stroke-width="1.25" fill="url(#_Fill27)"/>
<path d="M2803.8359 1092.9922 2768.5781 1109.625 C2765.3594 1112.2188 2768.1953 1123.2031 2772.6953 1131.7422 2776.8359 1138.6484 2776.8359 1138.9844 2781.6016 1143.3594" stroke="#000000" stroke-width="1.25" fill="none"/>
</g>
<g>
<path d="M2697.2422 1025.1484 C2690.625 1030.1484 2692.7578 1048.8047 2702 1066.8281 2711.2578 1084.8516 2724.125 1095.4453 2730.7344 1090.4531 2737.3516 1085.4609 2735.2188 1066.7969 2725.9844 1048.7813 2716.7188 1030.7344 2703.8516 1020.1797 2697.2422 1025.1484 Z" stroke="#000000" stroke-width="1.25" fill="#ffcc4f"/>
<defs>
<linearGradient id="_Fill28" gradientUnits="userSpaceOnUse" x1="2735.2656" y1="1069.8359" x2="2745.0156" y2="1016.0234" spreadMethod="pad">
<stop offset="0" stop-color="#fff5e1"/>
<stop offset="1" stop-color="#c08200"/>
</linearGradient>
</defs>
<path d="M2740.4219 1018.5156 2703.0313 1036.0859 C2699.3906 1039.0547 2701.3828 1051.1563 2707.4609 1063.1563 2713.5313 1075.1484 2721.3906 1082.4922 2725.0313 1079.5391 L2760.9766 1062.4531 C2773.4063 1056.6016 2778.6875 1042.2188 2772.8359 1029.7969 2766.9766 1017.3906 2752.8516 1012.6641 2740.4219 1018.5156 Z" stroke="#000000" stroke-width="1.25" fill="url(#_Fill28)"/>
<path d="M2742.4141 1024.2109 2707.1641 1040.8281 C2703.9453 1043.4297 2706.7734 1054.4141 2711.2891 1062.9531 2715.4219 1069.8594 2715.4141 1070.1953 2720.1953 1074.5781" stroke="#000000" stroke-width="1.25" fill="none"/>
</g>
<g>
<path d="M2633.9141 976.2813 C2627.2969 981.2813 2629.4297 999.9375 2638.6719 1017.9609 2647.9297 1035.9844 2660.7969 1046.5781 2667.4063 1041.5859 2674.0234 1036.5859 2671.8906 1017.9297 2662.6563 999.9141 2653.3906 981.8672 2640.5234 971.3047 2633.9141 976.2813 Z" stroke="#000000" stroke-width="1.25" fill="#ffcc4f"/>
<defs>
<linearGradient id="_Fill29" gradientUnits="userSpaceOnUse" x1="2671.9375" y1="1020.9609" x2="2681.6875" y2="967.1563" spreadMethod="pad">
<stop offset="0" stop-color="#fff5e1"/>
<stop offset="1" stop-color="#c08200"/>
</linearGradient>
</defs>
<path d="M2677.0938 969.6484 2639.7031 987.2188 C2636.0625 990.1797 2638.0547 1002.2891 2644.1172 1014.2813 2650.2031 1026.2813 2658.0625 1033.6094 2661.7031 1030.6719 L2697.6484 1013.5859 C2710.0625 1007.7188 2715.3594 993.3438 2709.5078 980.9297 2703.6484 968.5078 2689.5234 963.7813 2677.0938 969.6484 Z" stroke="#000000" stroke-width="1.25" fill="url(#_Fill29)"/>
<path d="M2679.0859 975.3359 2643.8281 991.9609 C2640.6172 994.5547 2643.4453 1005.5547 2647.9609 1014.0859 2652.0859 1021 2652.0859 1021.3203 2656.8672 1025.6953" stroke="#000000" stroke-width="1.25" fill="none"/>
</g>
<g>
<path d="M2579.7109 952.5 C2573.1016 957.5156 2575.2266 976.1563 2584.4766 994.1797 2593.7266 1012.2188 2606.5938 1022.7969 2613.2031 1017.8047 2619.8359 1012.8203 2617.6875 994.1484 2608.4531 976.1328 2599.1875 958.0859 2586.3203 947.5391 2579.7109 952.5 Z" stroke="#000000" stroke-width="1.25" fill="#ffcc4f"/>
<defs>
<linearGradient id="_Fill30" gradientUnits="userSpaceOnUse" x1="2617.7344" y1="997.1953" x2="2627.4844" y2="943.375" spreadMethod="pad">
<stop offset="0" stop-color="#fff5e1"/>
<stop offset="1" stop-color="#c08200"/>
</linearGradient>
</defs>
<path d="M2622.8906 945.8672 2585.5156 963.4375 C2581.8594 966.4141 2583.8594 978.5078 2589.9297 990.5156 2596 1002.5156 2603.875 1009.8438 2607.5078 1006.8906 L2643.4453 989.8047 C2655.875 983.9531 2661.1719 969.5781 2655.3047 957.1563 2649.4531 944.7422 2635.3203 940.0156 2622.8906 945.8672 Z" stroke="#000000" stroke-width="1.25" fill="url(#_Fill30)"/>
<path d="M2624.8984 951.5625 2589.6328 968.1953 C2586.4141 970.7891 2589.2578 981.7734 2593.7578 990.3125 2597.8906 997.2188 2597.8906 997.5547 2602.6641 1001.9297" stroke="#000000" stroke-width="1.25" fill="none"/>
</g>
<g>
<path d="M2533.2109 952.7266 C2526.5859 957.7266 2528.7266 976.3906 2537.9531 994.4141 2547.2109 1012.4375 2560.0781 1023.0234 2566.7031 1018.0313 2573.3203 1013.0313 2571.1875 994.375 2561.9375 976.3672 2552.6719 958.3125 2539.8047 947.75 2533.2109 952.7266 Z" stroke="#000000" stroke-width="1.25" fill="#ffcc4f"/>
<defs>
<linearGradient id="_Fill31" gradientUnits="userSpaceOnUse" x1="2571.2188" y1="997.4063" x2="2580.9688" y2="943.6016" spreadMethod="pad">
<stop offset="0" stop-color="#fff5e1"/>
<stop offset="1" stop-color="#c08200"/>
</linearGradient>
</defs>
<path d="M2576.3906 946.0938 2539 963.6641 C2535.3438 966.625 2537.3438 978.7344 2543.4141 990.7266 2549.4844 1002.7344 2557.3594 1010.0625 2560.9922 1007.125 L2596.9453 990.0313 C2609.3594 984.1719 2614.6563 969.7891 2608.7891 957.3828 2602.9375 944.9609 2588.8047 940.2344 2576.3906 946.0938 Z" stroke="#000000" stroke-width="1.25" fill="url(#_Fill31)"/>
<path d="M2578.3828 951.7813 2543.125 968.4141 C2539.8984 971 2542.7422 982 2547.2422 990.5391 2551.375 997.4453 2551.375 997.7656 2556.1641 1002.1484" stroke="#000000" stroke-width="1.25" fill="none"/>
</g>
<g>
<path d="M2497.6875 976.2656 C2491.0703 981.2656 2493.2031 999.9297 2502.4531 1017.9531 2511.7031 1035.9766 2524.5703 1046.5625 2531.1797 1041.5781 2537.8047 1036.5703 2535.6641 1017.9141 2526.4297 999.9063 2517.1641 981.8594 2504.2969 971.2891 2497.6875 976.2656 Z" stroke="#000000" stroke-width="1.25" fill="#ffcc4f"/>
<defs>
<linearGradient id="_Fill32" gradientUnits="userSpaceOnUse" x1="2535.7109" y1="1020.9453" x2="2545.4609" y2="967.1406" spreadMethod="pad">
<stop offset="0" stop-color="#fff5e1"/>
<stop offset="1" stop-color="#c08200"/>
</linearGradient>
</defs>
<path d="M2540.8672 969.6328 2503.4844 987.2031 C2499.8359 990.1641 2501.8281 1002.2813 2507.9063 1014.2656 2513.9766 1026.2734 2521.8438 1033.6016 2525.4766 1030.6641 L2561.4219 1013.5703 C2573.8516 1007.7109 2579.1328 993.3281 2573.2813 980.9219 2567.4219 968.5 2553.2969 963.7734 2540.8672 969.6328 Z" stroke="#000000" stroke-width="1.25" fill="url(#_Fill32)"/>
<path d="M2542.8594 975.3203 2507.6094 991.9531 C2504.3906 994.5391 2507.2188 1005.5391 2511.7344 1014.0781 2515.8672 1020.9844 2515.8594 1021.3047 2520.6406 1025.6875" stroke="#000000" stroke-width="1.25" fill="none"/>
</g>
<g>
<path d="M2472.2656 1023.1094 C2465.6484 1028.1172 2467.7813 1046.7813 2477.0234 1064.7891 2486.2813 1082.8281 2499.1484 1093.4063 2505.7578 1088.4141 2512.375 1083.4219 2510.2422 1064.7578 2501.0078 1046.7422 2491.7422 1028.6953 2478.875 1018.1406 2472.2656 1023.1094 Z" stroke="#000000" stroke-width="1.25" fill="#ffcc4f"/>
<defs>
<linearGradient id="_Fill33" gradientUnits="userSpaceOnUse" x1="2510.2891" y1="1067.7969" x2="2520.0391" y2="1013.9844" spreadMethod="pad">
<stop offset="0" stop-color="#fff5e1"/>
<stop offset="1" stop-color="#c08200"/>
</linearGradient>
</defs>
<path d="M2515.4453 1016.4766 2478.0547 1034.0469 C2474.4141 1037.0156 2476.4063 1049.1172 2482.4844 1061.1172 2488.5547 1073.125 2496.4141 1080.4531 2500.0547 1077.5 L2536 1060.4141 C2548.4219 1054.5625 2553.7109 1040.1797 2547.8594 1027.7578 2542 1015.3516 2527.875 1010.625 2515.4453 1016.4766 Z" stroke="#000000" stroke-width="1.25" fill="url(#_Fill33)"/>
<path d="M2517.4375 1022.1719 2482.1797 1038.8047 C2478.9688 1041.3984 2481.7969 1052.3828 2486.3047 1060.9141 2490.4453 1067.8281 2490.4297 1068.1641 2495.2188 1072.5391" stroke="#000000" stroke-width="1.25" fill="none"/>
</g>
<g>
<path d="M2461.9375 1089.5313 C2455.3359 1094.5313 2457.4531 1113.1875 2466.7031 1131.2109 2475.9609 1149.2344 2488.8281 1159.8125 2495.4375 1154.8359 2502.0625 1149.8359 2499.9297 1131.1641 2490.6875 1113.1641 2481.4141 1095.1172 2468.5469 1084.5547 2461.9375 1089.5313 Z" stroke="#000000" stroke-width="1.25" fill="#ffcc4f"/>
<defs>
<linearGradient id="_Fill34" gradientUnits="userSpaceOnUse" x1="2499.9688" y1="1134.2109" x2="2509.7188" y2="1080.3906" spreadMethod="pad">
<stop offset="0" stop-color="#fff5e1"/>
<stop offset="1" stop-color="#c08200"/>
</linearGradient>
</defs>
<path d="M2505.1328 1082.8984 2467.7422 1100.4688 C2464.0859 1103.4297 2466.0938 1115.5391 2472.1563 1127.5313 2478.2266 1139.5313 2486.1016 1146.8594 2489.7344 1143.9219 L2525.6797 1126.8359 C2538.1016 1120.9688 2543.3984 1106.5938 2537.5391 1094.1797 2531.6875 1081.7578 2517.5469 1077.0313 2505.1328 1082.8984 Z" stroke="#000000" stroke-width="1.25" fill="url(#_Fill34)"/>
<path d="M2507.125 1088.5859 2471.8672 1105.2109 C2468.6484 1107.8047 2471.4844 1118.8047 2475.9844 1127.3359 2480.1172 1134.25 2480.1172 1134.5703 2484.8906 1138.9453" stroke="#000000" stroke-width="1.25" fill="none"/>
</g>
<g>
<path d="M2466.25 1173.4844 C2459.6406 1178.4844 2461.7578 1197.1406 2471.0078 1215.1563 2480.2656 1233.1875 2493.1328 1243.7656 2499.7422 1238.7813 2506.3594 1233.7891 2504.2266 1215.1172 2494.9922 1197.1094 2485.7188 1179.0625 2472.8516 1168.5078 2466.25 1173.4844 Z" stroke="#000000" stroke-width="1.25" fill="#ffcc4f"/>
<defs>
<linearGradient id="_Fill35" gradientUnits="userSpaceOnUse" x1="2504.2734" y1="1218.1641" x2="2514.0234" y2="1164.3438" spreadMethod="pad">
<stop offset="0" stop-color="#fff5e1"/>
<stop offset="1" stop-color="#c08200"/>
</linearGradient>
</defs>
<path d="M2509.4297 1166.8438 2472.0391 1184.4219 C2468.3906 1187.3828 2470.3984 1199.4922 2476.4609 1211.4844 2482.5313 1223.4922 2490.4063 1230.8125 2494.0469 1227.8672 L2529.9844 1210.7813 C2542.4063 1204.9297 2547.6953 1190.5469 2541.8438 1178.125 2535.9922 1165.7109 2521.8516 1160.9922 2509.4297 1166.8438 Z" stroke="#000000" stroke-width="1.25" fill="url(#_Fill35)"/>
<path d="M2511.4297 1172.5391 2476.1641 1189.1719 C2472.9531 1191.7578 2475.7891 1202.7578 2480.2891 1211.2813 2484.4219 1218.1875 2484.4219 1218.5234 2489.1953 1222.8984" stroke="#000000" stroke-width="1.25" fill="none"/>
</g>
<g>
<path d="M2486.0547 1268.2266 C2479.4375 1273.2344 2481.5703 1291.8906 2490.8203 1309.9141 2500.0781 1327.9375 2512.9453 1338.5234 2519.5469 1333.5391 2526.1719 1328.5469 2524.0313 1309.875 2514.7969 1291.8672 2505.5313 1273.8203 2492.6641 1263.25 2486.0547 1268.2266 Z" stroke="#000000" stroke-width="1.25" fill="#ffcc4f"/>
<defs>
<linearGradient id="_Fill36" gradientUnits="userSpaceOnUse" x1="2524.0703" y1="1312.9141" x2="2533.8281" y2="1259.1016" spreadMethod="pad">
<stop offset="0" stop-color="#fff5e1"/>
<stop offset="1" stop-color="#c08200"/>
</linearGradient>
</defs>
<path d="M2529.2422 1261.6016 2491.8516 1279.1641 C2488.2031 1282.1406 2490.1953 1294.2422 2496.2578 1306.2422 2502.3438 1318.2344 2510.2109 1325.5781 2513.8438 1322.625 L2549.7891 1305.5391 C2562.2031 1299.6719 2567.5078 1285.2969 2561.6563 1272.8828 2555.7891 1260.4609 2541.6641 1255.7344 2529.2422 1261.6016 Z" stroke="#000000" stroke-width="1.25" fill="url(#_Fill36)"/>
<path d="M2531.2266 1267.2813 2495.9766 1283.9141 C2492.75 1286.5078 2495.5938 1297.5 2500.1016 1306.0391 2504.2266 1312.9453 2504.2266 1313.2813 2509.0078 1317.6484" stroke="#000000" stroke-width="1.25" fill="none"/>
</g>
<g>
<path d="M2958.2422 1692.6797 C2951.625 1697.6875 2953.7578 1716.3359 2962.9922 1734.3594 2972.25 1752.3828 2985.1172 1762.9766 2991.7344 1757.9844 2998.3594 1753 2996.2188 1734.3281 2986.9766 1716.3125 2977.7031 1698.2656 2964.8359 1687.7109 2958.2422 1692.6797 Z" stroke="#000000" stroke-width="1.25" fill="#ffcc4f"/>
<defs>
<linearGradient id="_Fill37" gradientUnits="userSpaceOnUse" x1="2996.2578" y1="1737.375" x2="3006.0156" y2="1683.5547" spreadMethod="pad">
<stop offset="0" stop-color="#fff5e1"/>
<stop offset="1" stop-color="#c08200"/>
</linearGradient>
</defs>
<path d="M3001.4219 1686.0469 2964.0391 1703.6172 C2960.375 1706.5859 2962.3828 1718.6875 2968.4453 1730.6953 2974.5156 1742.6953 2982.3984 1750.0234 2986.0313 1747.0703 L3021.9766 1729.9844 C3034.3906 1724.1328 3039.6875 1709.7578 3033.8281 1697.3281 3027.9766 1684.9219 3013.8359 1680.1953 3001.4219 1686.0469 Z" stroke="#000000" stroke-width="1.25" fill="url(#_Fill37)"/>
<path d="M3003.4141 1691.7422 2968.1641 1708.3594 C2964.9375 1710.9688 2967.7734 1721.9531 2972.2734 1730.4844 2976.4141 1737.3984 2976.4141 1737.7344 2981.1953 1742.1094" stroke="#000000" stroke-width="1.25" fill="none"/>
</g>
<g>
<path d="M2937.8672 1742.5625 C2931.25 1747.5781 2933.3828 1766.2266 2942.6328 1784.25 2951.8906 1802.2813 2964.7578 1812.8594 2971.3594 1807.8672 2977.9844 1802.8828 2975.8438 1784.2109 2966.6172 1766.2031 2957.3438 1748.1484 2944.4766 1737.6016 2937.8672 1742.5625 Z" stroke="#000000" stroke-width="1.25" fill="#ffcc4f"/>
<defs>
<linearGradient id="_Fill38" gradientUnits="userSpaceOnUse" x1="2975.8984" y1="1787.2578" x2="2985.6406" y2="1733.4375" spreadMethod="pad">
<stop offset="0" stop-color="#fff5e1"/>
<stop offset="1" stop-color="#c08200"/>
</linearGradient>
</defs>
<path d="M2981.0547 1735.9297 2943.6641 1753.5 C2940.0156 1756.4766 2942.0078 1768.5703 2948.0859 1780.5781 2954.1563 1792.5781 2962.0234 1799.9063 2965.6563 1796.9609 L3001.6016 1779.8672 C3014.0313 1774.0156 3019.3203 1759.6406 3013.4688 1747.2188 3007.6016 1734.8047 2993.4766 1730.0781 2981.0547 1735.9297 Z" stroke="#000000" stroke-width="1.25" fill="url(#_Fill38)"/>
<path d="M2983.0391 1741.625 2947.7891 1758.2578 C2944.5703 1760.8516 2947.4063 1771.8359 2951.9141 1780.375 2956.0469 1787.2813 2956.0391 1787.6172 2960.8203 1791.9922" stroke="#000000" stroke-width="1.25" fill="none"/>
</g>
<g>
<path d="M2905.6953 1772.2188 C2899.0781 1777.2344 2901.2109 1795.8828 2910.4453 1813.9063 2919.7031 1831.9375 2932.5703 1842.5156 2939.1875 1837.5234 2945.8047 1832.5391 2943.6719 1813.8672 2934.4297 1795.8516 2925.1563 1777.8047 2912.2891 1767.2578 2905.6953 1772.2188 Z" stroke="#000000" stroke-width="1.25" fill="#ffcc4f"/>
<defs>
<linearGradient id="_Fill39" gradientUnits="userSpaceOnUse" x1="2943.7109" y1="1816.9141" x2="2953.4688" y2="1763.0938" spreadMethod="pad">
<stop offset="0" stop-color="#fff5e1"/>
<stop offset="1" stop-color="#c08200"/>
</linearGradient>
</defs>
<path d="M2948.875 1765.5859 2911.4844 1783.1563 C2907.8281 1786.1328 2909.8359 1798.2266 2915.8984 1810.2344 2921.9688 1822.2344 2929.8438 1829.5625 2933.4766 1826.6172 L2969.4297 1809.5234 C2981.8438 1803.6719 2987.1406 1789.2969 2981.2813 1776.875 2975.4297 1764.4609 2961.2891 1759.7344 2948.875 1765.5859 Z" stroke="#000000" stroke-width="1.25" fill="url(#_Fill39)"/>
<path d="M2950.8672 1771.2813 2915.6094 1787.9141 C2912.3906 1790.5078 2915.2266 1801.4922 2919.7266 1810.0313 2923.8594 1816.9375 2923.8594 1817.2734 2928.6484 1821.6484" stroke="#000000" stroke-width="1.25" fill="none"/>
</g>
<g>
<path d="M2861.0391 1779.2578 C2854.4219 1784.2578 2856.5547 1802.9219 2865.7969 1820.9453 2875.0547 1838.9688 2887.9219 1849.5547 2894.5313 1844.5625 2901.1484 1839.5625 2899.0156 1820.9063 2889.7813 1802.8906 2880.5156 1784.8438 2867.6484 1774.2813 2861.0391 1779.2578 Z" stroke="#000000" stroke-width="1.25" fill="#ffcc4f"/>
<defs>
<linearGradient id="_Fill40" gradientUnits="userSpaceOnUse" x1="2899.0625" y1="1823.9375" x2="2908.8125" y2="1770.1328" spreadMethod="pad">
<stop offset="0" stop-color="#fff5e1"/>
<stop offset="1" stop-color="#c08200"/>
</linearGradient>
</defs>
<path d="M2904.2188 1772.625 2866.8281 1790.1953 C2863.1875 1793.1563 2865.1719 1805.2656 2871.2578 1817.2734 2877.3203 1829.2656 2885.1875 1836.6016 2888.8203 1833.6563 L2924.7734 1816.5625 C2937.1953 1810.7031 2942.4844 1796.3203 2936.6328 1783.9141 2930.7734 1771.4844 2916.6406 1766.7656 2904.2188 1772.625 Z" stroke="#000000" stroke-width="1.25" fill="url(#_Fill40)"/>
<path d="M2906.2109 1778.3125 2870.9531 1794.9453 C2867.7422 1797.5313 2870.5703 1808.5313 2875.0781 1817.0703 2879.2188 1823.9766 2879.2031 1824.2969 2883.9922 1828.6797" stroke="#000000" stroke-width="1.25" fill="none"/>
</g>
<g>
<path d="M2805.6094 1760.5859 C2798.9922 1765.5859 2801.125 1784.25 2810.375 1802.2734 2819.6328 1820.2969 2832.5 1830.8828 2839.1016 1825.8906 2845.7266 1820.8906 2843.5938 1802.2344 2834.3594 1784.2266 2825.0859 1766.1719 2812.2188 1755.6094 2805.6094 1760.5859 Z" stroke="#000000" stroke-width="1.25" fill="#ffcc4f"/>
<defs>
<linearGradient id="_Fill41" gradientUnits="userSpaceOnUse" x1="2843.6406" y1="1805.2656" x2="2853.3906" y2="1751.4609" spreadMethod="pad">
<stop offset="0" stop-color="#fff5e1"/>
<stop offset="1" stop-color="#c08200"/>
</linearGradient>
</defs>
<path d="M2848.7969 1753.9531 2811.4063 1771.5234 C2807.7578 1774.4844 2809.75 1786.5938 2815.8281 1798.5859 2821.8984 1810.5938 2829.7656 1817.9219 2833.4063 1814.9844 L2869.3516 1797.8906 C2881.7734 1792.0313 2887.0625 1777.6484 2881.2109 1765.2422 2875.3594 1752.8203 2861.2188 1748.0938 2848.7969 1753.9531 Z" stroke="#000000" stroke-width="1.25" fill="url(#_Fill41)"/>
<path d="M2850.7969 1759.6406 2815.5313 1776.2734 C2812.3125 1778.8594 2815.1484 1789.8594 2819.6563 1798.3984 2823.7891 1805.3047 2823.7813 1805.625 2828.5625 1810.0078" stroke="#000000" stroke-width="1.25" fill="none"/>
</g>
<g>
<path d="M2746.1953 1717.1016 C2739.5703 1722.1094 2741.7109 1740.7656 2750.9531 1758.7891 2760.2109 1776.8125 2773.0781 1787.3984 2779.6875 1782.4141 2786.3047 1777.4219 2784.1719 1758.75 2774.9375 1740.7422 2765.6641 1722.6953 2752.8047 1712.1406 2746.1953 1717.1016 Z" stroke="#000000" stroke-width="1.25" fill="#ffcc4f"/>
<defs>
<linearGradient id="_Fill42" gradientUnits="userSpaceOnUse" x1="2784.2188" y1="1761.7969" x2="2793.9688" y2="1707.9766" spreadMethod="pad">
<stop offset="0" stop-color="#fff5e1"/>
<stop offset="1" stop-color="#c08200"/>
</linearGradient>
</defs>
<path d="M2789.375 1710.4766 2751.9844 1728.0391 C2748.3438 1731.0156 2750.3281 1743.1172 2756.4141 1755.1172 2762.4766 1767.1094 2770.3438 1774.4531 2773.9766 1771.5 L2809.9297 1754.4141 C2822.3516 1748.5625 2827.6406 1734.1797 2821.7891 1721.7578 2815.9219 1709.3438 2801.7969 1704.625 2789.375 1710.4766 Z" stroke="#000000" stroke-width="1.25" fill="url(#_Fill42)"/>
<path d="M2791.3672 1716.1719 2756.1094 1732.7891 C2752.8984 1735.3906 2755.7266 1746.375 2760.2344 1754.9141 2764.375 1761.8203 2764.3594 1762.1563 2769.1484 1766.5313" stroke="#000000" stroke-width="1.25" fill="none"/>
</g>
<g>
<path d="M2681.0547 1650.9688 C2674.4453 1655.9844 2676.5703 1674.6406 2685.8125 1692.6563 2695.0703 1710.6875 2707.9375 1721.2656 2714.5625 1716.2813 2721.1797 1711.2891 2719.0469 1692.6172 2709.7969 1674.6094 2700.5313 1656.5625 2687.6641 1646.0078 2681.0547 1650.9688 Z" stroke="#000000" stroke-width="1.25" fill="#ffcc4f"/>
<defs>
<linearGradient id="_Fill43" gradientUnits="userSpaceOnUse" x1="2719.0781" y1="1695.6641" x2="2728.8281" y2="1641.8438" spreadMethod="pad">
<stop offset="0" stop-color="#fff5e1"/>
<stop offset="1" stop-color="#c08200"/>
</linearGradient>
</defs>
<path d="M2724.25 1644.3359 2686.8594 1661.9063 C2683.2031 1664.8828 2685.2031 1676.9844 2691.2734 1688.9844 2697.3359 1700.9922 2705.2188 1708.3125 2708.8516 1705.3672 L2744.7891 1688.2734 C2757.2109 1682.4219 2762.5156 1668.0469 2756.6484 1655.625 2750.7969 1643.2109 2736.6563 1638.4844 2724.25 1644.3359 Z" stroke="#000000" stroke-width="1.25" fill="url(#_Fill43)"/>
<path d="M2726.2422 1650.0391 2690.9844 1666.6641 C2687.7578 1669.2578 2690.6016 1680.2422 2695.0938 1688.7813 2699.2344 1695.6875 2699.2344 1696.0234 2704.0078 1700.3984" stroke="#000000" stroke-width="1.25" fill="none"/>
</g>
<g>
<path d="M2621.4063 1569.5938 C2614.7891 1574.5938 2616.9219 1593.2578 2626.1719 1611.2813 2635.4219 1629.3047 2648.2891 1639.8906 2654.8984 1634.8984 2661.5234 1629.9141 2659.3828 1611.2422 2650.1484 1593.2344 2640.8828 1575.1797 2628.0156 1564.6172 2621.4063 1569.5938 Z" stroke="#000000" stroke-width="1.25" fill="#ffcc4f"/>
<defs>
<linearGradient id="_Fill44" gradientUnits="userSpaceOnUse" x1="2659.4297" y1="1614.2891" x2="2669.1797" y2="1560.4688" spreadMethod="pad">
<stop offset="0" stop-color="#fff5e1"/>
<stop offset="1" stop-color="#c08200"/>
</linearGradient>
</defs>
<path d="M2664.5859 1562.9609 2627.2031 1580.5313 C2623.5547 1583.5078 2625.5469 1595.6016 2631.625 1607.6094 2637.6953 1619.6016 2645.5625 1626.9375 2649.2031 1623.9922 L2685.1406 1606.8984 C2697.5703 1601.0469 2702.8516 1586.6719 2697 1574.25 2691.1406 1561.8203 2677.0156 1557.1094 2664.5859 1562.9609 Z" stroke="#000000" stroke-width="1.25" fill="url(#_Fill44)"/>
<path d="M2666.5938 1568.6484 2631.3281 1585.2813 C2628.1094 1587.8672 2630.9375 1598.8672 2635.4531 1607.4063 2639.5859 1614.3125 2639.5781 1614.6484 2644.3594 1619.0156" stroke="#000000" stroke-width="1.25" fill="none"/>
</g>
<g>
<path d="M2567.1719 1475.7109 C2560.5469 1480.7109 2562.6875 1499.375 2571.9297 1517.3828 2581.1875 1535.4219 2594.0547 1545.9922 2600.6641 1541.0078 2607.2813 1536.0156 2605.1484 1517.3438 2595.9141 1499.3359 2586.6406 1481.2891 2573.7734 1470.7344 2567.1719 1475.7109 Z" stroke="#000000" stroke-width="1.25" fill="#ffcc4f"/>
<defs>
<linearGradient id="_Fill45" gradientUnits="userSpaceOnUse" x1="2605.1953" y1="1520.3906" x2="2614.9453" y2="1466.5703" spreadMethod="pad">
<stop offset="0" stop-color="#fff5e1"/>
<stop offset="1" stop-color="#c08200"/>
</linearGradient>
</defs>
<path d="M2610.3516 1469.0703 2572.9609 1486.6484 C2569.3125 1489.6094 2571.3047 1501.7188 2577.375 1513.7109 2583.4531 1525.7188 2591.3203 1533.0469 2594.9531 1530.0938 L2630.9063 1513.0078 C2643.3125 1507.1563 2648.6172 1492.7734 2642.7656 1480.3516 2636.8984 1467.9375 2622.7734 1463.2188 2610.3516 1469.0703 Z" stroke="#000000" stroke-width="1.25" fill="url(#_Fill45)"/>
<path d="M2612.3438 1474.7656 2577.0859 1491.3984 C2573.875 1493.9844 2576.7031 1504.9844 2581.2109 1513.5078 2585.3359 1520.4141 2585.3359 1520.75 2590.1172 1525.1328" stroke="#000000" stroke-width="1.25" fill="none"/>
</g>
<g>
<path d="M2521.6719 1375.4219 C2515.0547 1380.4219 2517.1875 1399.0859 2526.4297 1417.1094 2535.6875 1435.1328 2548.5547 1445.7188 2555.1641 1440.7344 2561.7813 1435.7422 2559.6484 1417.0703 2550.4141 1399.0625 2541.1484 1381.0156 2528.2813 1370.4453 2521.6719 1375.4219 Z" stroke="#000000" stroke-width="1.25" fill="#ffcc4f"/>
<defs>
<linearGradient id="_Fill46" gradientUnits="userSpaceOnUse" x1="2559.6953" y1="1420.1094" x2="2569.4453" y2="1366.2969" spreadMethod="pad">
<stop offset="0" stop-color="#fff5e1"/>
<stop offset="1" stop-color="#c08200"/>
</linearGradient>
</defs>
<path d="M2564.8516 1368.7969 2527.4609 1386.3594 C2523.8203 1389.3359 2525.8125 1401.4375 2531.875 1413.4375 2537.9531 1425.4297 2545.8203 1432.7656 2549.4531 1429.8203 L2585.4063 1412.7344 C2597.8203 1406.8672 2603.1172 1392.4922 2597.2656 1380.0781 2591.4063 1367.6563 2577.2813 1362.9375 2564.8516 1368.7969 Z" stroke="#000000" stroke-width="1.25" fill="url(#_Fill46)"/>
<path d="M2566.8438 1374.4766 2531.5859 1391.1094 C2528.375 1393.7031 2531.2031 1404.6953 2535.7109 1413.2344 2539.8359 1420.1406 2539.8359 1420.4766 2544.625 1424.8438" stroke="#000000" stroke-width="1.25" fill="none"/>
</g>
<defs>
<linearGradient id="_Fill47" gradientUnits="userSpaceOnUse" x1="2713.0469" y1="2023.1797" x2="2259.7969" y2="1208.5234" spreadMethod="pad">
<stop offset="0" stop-color="#cccccc"/>
<stop offset="1" stop-color="#000000"/>
</linearGradient>
</defs>
<path d="M2474.9844 1523.3281 2521.7344 1663.3125 2567.7891 1642.1953 2519.6484 1499.2656 2474.9844 1523.3281 Z" fill="url(#_Fill47)"/>
<defs>
<linearGradient id="_Fill48" gradientUnits="userSpaceOnUse" x1="2463.0313" y1="1308.4063" x2="2743.5938" y2="1150.0391" spreadMethod="pad">
<stop offset="0" stop-color="#cccccc"/>
<stop offset="1" stop-color="#000000"/>
</linearGradient>
</defs>
<path d="M2450.4531 1530.0781 2477.9375 1521.9375 2521.0938 1499.7656 2495.5625 1508.2109 2450.4531 1530.0781 Z" stroke="#000000" stroke-width="1.25" fill="url(#_Fill48)"/>
<defs>
<linearGradient id="_Fill49" gradientUnits="userSpaceOnUse" x1="2713.0469" y1="2023.1797" x2="2259.7969" y2="1208.5234" spreadMethod="pad">
<stop offset="0" stop-color="#cccccc"/>
<stop offset="1" stop-color="#000000"/>
</linearGradient>
</defs>
<path d="M2422.3594 1395.1641 2450.6953 1530.5703 2497.2656 1508.0078 2468.1563 1374.7656 2422.3594 1395.1641 Z" fill="url(#_Fill49)"/>
<defs>
<linearGradient id="_Fill50" gradientUnits="userSpaceOnUse" x1="2463.0313" y1="1308.4063" x2="2743.5938" y2="1150.0391" spreadMethod="pad">
<stop offset="0" stop-color="#cccccc"/>
<stop offset="1" stop-color="#000000"/>
</linearGradient>
</defs>
<path d="M2393 1389.1328 2440.3047 1366.8125 2467.1719 1375.2188 2422.8516 1394.9219 2393 1389.1328 Z" fill="url(#_Fill50)"/>
<defs>
<linearGradient id="_Fill51" gradientUnits="userSpaceOnUse" x1="2713.0469" y1="2023.1797" x2="2259.7969" y2="1208.5234" spreadMethod="pad">
<stop offset="0" stop-color="#cccccc"/>
<stop offset="1" stop-color="#000000"/>
</linearGradient>
</defs>
<path d="M2385.4453 1272.2266 2431.5391 1249.8828 2438.1016 1367.2578 2393.2422 1389.625 2385.4453 1272.2266 Z" fill="url(#_Fill51)"/>
<defs>
<linearGradient id="_Fill52" gradientUnits="userSpaceOnUse" x1="2463.0313" y1="1308.4063" x2="2743.5938" y2="1150.0391" spreadMethod="pad">
<stop offset="0" stop-color="#cccccc"/>
<stop offset="1" stop-color="#000000"/>
</linearGradient>
</defs>
<path d="M2351.3281 1250.9609 2398.875 1229.1484 2431.0391 1250.125 2385.6875 1272.7188 2351.3281 1250.9609 Z" fill="url(#_Fill52)"/>
<defs>
<linearGradient id="_Fill53" gradientUnits="userSpaceOnUse" x1="2713.0469" y1="2023.1797" x2="2259.7969" y2="1208.5234" spreadMethod="pad">
<stop offset="0" stop-color="#cccccc"/>
<stop offset="1" stop-color="#000000"/>
</linearGradient>
</defs>
<path d="M2364.7344 1155.5078 2411.0234 1134.8828 2397.3906 1229.8438 2351.3281 1250.9609 2364.7344 1155.5078 Z" fill="url(#_Fill53)"/>
<defs>
<linearGradient id="_Fill54" gradientUnits="userSpaceOnUse" x1="2463.0313" y1="1308.4063" x2="2743.5938" y2="1150.0391" spreadMethod="pad">
<stop offset="0" stop-color="#cccccc"/>
<stop offset="1" stop-color="#000000"/>
</linearGradient>
</defs>
<path d="M2330.1406 1123.0313 2376.4609 1101.1875 2412.25 1134.8906 2365.6797 1156.2656 2330.1406 1123.0313 Z" fill="url(#_Fill54)"/>
<defs>
<linearGradient id="_Fill55" gradientUnits="userSpaceOnUse" x1="2713.0469" y1="2023.1797" x2="2259.7969" y2="1208.5234" spreadMethod="pad">
<stop offset="0" stop-color="#cccccc"/>
<stop offset="1" stop-color="#000000"/>
</linearGradient>
</defs>
<path d="M2364.9844 1052.5625 2410.4375 1032.75 2375.9375 1102.6328 2330.1406 1123.0313 2364.9844 1052.5625 Z" fill="url(#_Fill55)"/>
<defs>
<linearGradient id="_Fill56" gradientUnits="userSpaceOnUse" x1="2463.0313" y1="1308.4063" x2="2743.5938" y2="1150.0391" spreadMethod="pad">
<stop offset="0" stop-color="#cccccc"/>
<stop offset="1" stop-color="#000000"/>
</linearGradient>
</defs>
<path d="M2329.3359 1010.5547 2375.8438 990.0313 2409.4531 1033.2188 2365.4219 1053.4844 2329.3359 1010.5547 Z" fill="url(#_Fill56)"/>
<defs>
<linearGradient id="_Fill57" gradientUnits="userSpaceOnUse" x1="2713.0469" y1="2023.1797" x2="2259.7969" y2="1208.5234" spreadMethod="pad">
<stop offset="0" stop-color="#cccccc"/>
<stop offset="1" stop-color="#000000"/>
</linearGradient>
</defs>
<path d="M2428.5781 953.7266 2379.3516 974.5313 2330.2109 1012.3984 2376.7969 990.7891 2428.5781 953.7266 Z" fill="url(#_Fill57)"/>
<defs>
<linearGradient id="_Fill58" gradientUnits="userSpaceOnUse" x1="2463.0313" y1="1308.4063" x2="2743.5938" y2="1150.0391" spreadMethod="pad">
<stop offset="0" stop-color="#cccccc"/>
<stop offset="1" stop-color="#000000"/>
</linearGradient>
</defs>
<path d="M2348.3281 925.3125 2393.6875 902.7188 2426.6406 953.4375 2379.8594 974.2891 2348.3281 925.3125 Z" fill="url(#_Fill58)"/>
<defs>
<linearGradient id="_Fill59" gradientUnits="userSpaceOnUse" x1="2463.0313" y1="1308.4063" x2="2743.5938" y2="1150.0391" spreadMethod="pad">
<stop offset="0" stop-color="#cccccc"/>
<stop offset="1" stop-color="#000000"/>
</linearGradient>
</defs>
<path d="M2387.7031 865.7734 2433.9922 845.1484 2460.7813 899.375 2405.6484 901.2813 2387.7031 865.7734 Z" fill="url(#_Fill59)"/>
<g>
<path d="M2816.7734 1178.2891 C2810.1563 1183.3047 2812.2891 1201.9531 2821.5234 1219.9766 2830.7813 1238.0078 2843.6484 1248.5859 2850.2734 1243.6016 2856.8906 1238.6094 2854.7578 1219.9375 2845.5078 1201.9297 2836.2422 1183.8828 2823.375 1173.3281 2816.7734 1178.2891 Z" stroke="#000000" stroke-width="1.25" fill="#ffcc4f"/>
<defs>
<linearGradient id="_Fill60" gradientUnits="userSpaceOnUse" x1="2854.7891" y1="1222.9844" x2="2864.5391" y2="1169.1641" spreadMethod="pad">
<stop offset="0" stop-color="#fff5e1"/>
<stop offset="1" stop-color="#c08200"/>
</linearGradient>
</defs>
<path d="M2859.9609 1171.6641 2822.5703 1189.2266 C2818.9141 1192.2031 2820.9141 1204.3047 2826.9844 1216.3047 2833.0469 1228.3125 2840.9297 1235.6406 2844.5625 1232.6875 L2880.5 1215.6016 C2892.9219 1209.75 2898.2266 1195.3672 2892.3594 1182.9453 2886.5078 1170.5313 2872.3672 1165.8125 2859.9609 1171.6641 Z" stroke="#000000" stroke-width="1.25" fill="url(#_Fill60)"/>
<path d="M2861.9531 1177.3594 2826.6953 1193.9922 C2823.4688 1196.5781 2826.3125 1207.5625 2830.8047 1216.1016 2834.9453 1223.0078 2834.9453 1223.3438 2839.7266 1227.7188" stroke="#000000" stroke-width="1.25" fill="none"/>
</g>
<path d="M3198.1641 2097.3047 C3190.8203 2297.625 2955.5078 2439.1641 2752.7266 2239.5156" stroke="#000000" stroke-width="11.5078" fill="none"/>
<path transform="matrix(-0.1367 -0.1346 0.1346 -0.1367 2752.7266 2239.5156)" stroke="none" fill="#000000" d="M-90 -180 360 0 -90 180 0 0 -90 -180 Z"/>
</g>
</svg>
